<?xml version="1.0" encoding="utf-8"?>
<!-- Generator: Adobe Illustrator 19.2.1, SVG Export Plug-In . SVG Version: 6.00 Build 0)  -->
<svg version="1.0" xmlns="http://www.w3.org/2000/svg" xmlns:xlink="http://www.w3.org/1999/xlink" x="0px" y="0px"
	 viewBox="0 0 30 30" style="enable-background:new 0 0 30 30;" xml:space="preserve">
<style type="text/css">
	.st0{display:none;}
	.st1{display:inline;fill:#222221;}
	.st2{display:inline;}
	.st3{fill:#222221;}
</style>
<g id="avion">
	<g>
		<path class="st3" d="M28.4,8.3c-0.5-1-2.9-2.2-6-0.9c0,0-15.4,6.8-15.8,7.1c-0.5,0.2-0.8,0-1.2-0.3c-0.8-0.6-1.9-1.4-2.2-1.6
			c-0.5-0.4-1.9-0.1-1.5,0.7c0.4,0.8,1.5,3.4,2,4.4c0.6,1.5,4,1.1,9.9-1.5c0.5-0.2,1.1-0.5,1.7-0.8l-1.5,7.9c-0.2,0.8,0,1,0.2,0.9
			l0.9-0.4c0.5-0.2,1.1-0.9,1.4-1.6l4.3-9.2C24.8,10.9,28.7,8.9,28.4,8.3z"/>
		<path class="st3" d="M7.4,9.2l3.5,2.1l3.9-1.7L10,8.1C9.2,7.8,8.3,7.8,7.8,8L7,8.4C6.7,8.5,6.7,8.8,7.4,9.2z"/>
	</g>
</g>
</svg>
