<?xml version="1.0" encoding="utf-8"?>
<!-- Generator: Adobe Illustrator 19.2.1, SVG Export Plug-In . SVG Version: 6.00 Build 0)  -->
<svg version="1.0" id="Calque_1" xmlns="http://www.w3.org/2000/svg" xmlns:xlink="http://www.w3.org/1999/xlink" x="0px" y="0px"
	 viewBox="0 0 30 30" style="enable-background:new 0 0 30 30;" xml:space="preserve">
<style type="text/css">
	.st0{display:none;}
	.st1{display:inline;fill:#222221;}
	.st2{display:inline;}
	.st3{fill:#222221;}
</style>
<path d="M27.8,23.1h-2.4v-0.5c1.3-0.8,2.1-2.3,2.1-3.9c0-1.6-0.9-3.1-2.1-3.9V9.5c0-0.3-0.3-0.5-0.7-0.3l-2.4,1.6
	c-0.2,0.1-0.3,0.3-0.3,0.5v2.9c-0.4,0.1-0.7,0.2-1.1,0.4c-1.2-3-2-6.1-2.3-6.9c-0.1-0.2-0.3-0.4-0.5-0.4h-2.9
	c-0.3,0-0.5,0.2-0.5,0.5s0.2,0.5,0.5,0.5h2.6c0.2,0.7,0.5,2,1,3.5c0,0,0,0,0,0c-3.5,1.8-4,5.2-4.1,6.5h-0.3l-4.4-8.9l0.2-0.1
	c1.5-0.2,1.4-0.7,1.4-0.7c0-0.5-0.9-0.4-0.9-0.4H7.5c-0.3,0-0.5,0.1-0.5,0.1C6.7,8.4,6.9,9.5,6.9,9.5C7,10,7.3,10.1,7.3,10.1
	c0.2,0.1,0.7,0,0.7,0c0.6-0.2,1-0.4,1.2-0.4l1.2,2.5l-1.7,1.7c-0.7-0.4-1.5-0.6-2.3-0.6c-2.8,0-5.1,2.3-5.1,5.1
	c0,0.2,0.2,0.4,0.4,0.5l0.1,0c0.1,2,1.3,3.6,3.1,4.2H1.9c-0.3,0-0.5,0.2-0.5,0.5s0.2,0.5,0.5,0.5h26c0.3,0,0.5-0.2,0.5-0.5
	S28.2,23.1,27.8,23.1z M20.5,16c0.5,1,1,2,1.5,2.8v3.4c-1.6-0.4-2.8-1.8-2.8-3.5C19.3,17.6,19.8,16.7,20.5,16z M26.6,18.7
	c0,1-0.4,2-1.1,2.6v-5.3C26.1,16.8,26.6,17.7,26.6,18.7z M22,15.2v1.7c-0.2-0.5-0.5-0.9-0.7-1.4C21.6,15.3,21.8,15.3,22,15.2z
	 M2.7,19.1l3.5,0.7c0,0,0.1,0,0.1,0c0.2,0,0.3-0.1,0.4-0.2L9,16.3c0.6,0.7,1,1.5,1,2.5c0,2-1.6,3.6-3.6,3.6
	C4.4,22.4,2.9,20.9,2.7,19.1z M11,18.7c0-1.3-0.5-2.5-1.4-3.3l0.2-0.3c0.1-0.2,0.1-0.5-0.1-0.7c-0.1-0.1-0.1-0.1-0.2-0.2l1.3-1.3
	l3,5.9c0.1,0.2,0.3,0.3,0.4,0.3h1.1c0.1,0,0.3-0.1,0.4-0.2s0.1-0.2,0.1-0.4c0-0.2-0.1-4.1,3.4-6c0.3,0.8,0.6,1.6,0.9,2.4
	c-1.1,0.8-1.8,2.2-1.8,3.7c0,2,1.3,3.7,3.1,4.4H7.9C9.7,22.5,11,20.8,11,18.7z"/>
</svg>
