<?xml version="1.0" encoding="utf-8"?>
<!-- Generator: Adobe Illustrator 19.2.1, SVG Export Plug-In . SVG Version: 6.00 Build 0)  -->
<svg version="1.0" id="Calque_1" xmlns="http://www.w3.org/2000/svg" xmlns:xlink="http://www.w3.org/1999/xlink" x="0px" y="0px"
	 viewBox="0 0 30 30" style="enable-background:new 0 0 30 30;" xml:space="preserve">
<style type="text/css">
	.st0{display:none;}
	.st1{display:inline;fill:#222221;}
	.st2{display:inline;}
	.st3{fill:#222221;}
</style>
<g>
	<path class="st3" d="M6.9,12L15,9.5l8.1,2.5c0.4,0.2,0.9-0.1,0.9-0.6V8.1c0-0.4-0.3-0.8-0.8-0.8H22c-0.4,0-0.8-0.3-0.8-0.8
		c0-0.4-0.3-0.8-0.8-0.8H9.5C9.1,5.7,8.7,6,8.7,6.5S8.4,7.3,8,7.3H6.8c-0.5,0-0.9,0.4-0.9,0.9v3.1C5.9,11.8,6.4,12.2,6.9,12z"/>
	<path class="st3" d="M26.2,16c0.1-0.4-0.2-0.7-0.5-0.8L15.1,12c-0.1,0-0.1,0-0.1,0c0,0,0,0-0.1,0L4.2,15.2
		c-0.3,0.1-0.6,0.4-0.5,0.8c0.2,2.6,1.4,4.7,2.3,6c0.2,0.3,0.2,0.8-0.2,1.1L4.5,24l0.6,0.9l2.7-1.8c0.3-0.2,0.6-0.2,0.8,0l2.5,1.7
		c0.3,0.2,0.6,0.2,0.8,0l2.5-1.7c0.2-0.1,0.9-0.1,1.1,0l2.5,1.7c0.2,0.2,0.5,0.2,0.8,0l2.5-1.7c0.2-0.2,0.5-0.2,0.8,0l2.7,1.8
		l0.6-0.9l-1.3-0.9c-0.4-0.3-0.4-0.8-0.2-1.1C24.8,20.7,26,18.6,26.2,16z"/>
</g>
</svg>
