<?xml version="1.0" encoding="utf-8"?>
<!-- Generator: Adobe Illustrator 19.2.1, SVG Export Plug-In . SVG Version: 6.00 Build 0)  -->
<svg version="1.0" id="Calque_1" xmlns="http://www.w3.org/2000/svg" xmlns:xlink="http://www.w3.org/1999/xlink" x="0px" y="0px"
	 viewBox="0 0 30 30" style="enable-background:new 0 0 30 30;" xml:space="preserve">
<style type="text/css">
	.st0{display:none;}
	.st1{display:inline;fill:#222221;}
	.st2{display:inline;}
	.st3{fill:#222221;}
</style>
<g id="bus_1_" class="st0">
	<path class="st1" d="M26.2,6.4h-1.1V4.2c0-1.2-1-2.3-2.3-2.3H7.1c-1.2,0-2.3,1-2.3,2.3v2.3H3.7C3.1,6.4,2.6,7,2.6,7.6v4.5
		c0,0.6,0.5,1.1,1.1,1.1s1.1-0.5,1.1-1.1v11.3c0,0.8,0.5,1.6,1.1,1.9v1.4C5.9,28,7,29,8.2,29s2.3-1,2.3-2.3v-1.1h9v1.1
		c0,1.2,1,2.3,2.3,2.3c1.2,0,2.3-1,2.3-2.3v-1.4c0.7-0.4,1.1-1.1,1.1-1.9V12.1c0,0.6,0.5,1.1,1.1,1.1s1.1-0.5,1.1-1.1V7.6
		C27.4,7,26.9,6.4,26.2,6.4z M11.6,4.2h6.8c0.6,0,1.1,0.5,1.1,1.1S19,6.4,18.4,6.4h-6.8c-0.6,0-1.1-0.5-1.1-1.1
		C10.5,4.7,11,4.2,11.6,4.2z M7.6,23.4c-0.9,0-1.7-0.8-1.7-1.7c0-0.9,0.8-1.7,1.7-1.7s1.7,0.8,1.7,1.7C9.3,22.6,8.6,23.4,7.6,23.4z
		 M19.5,22.2h-9v-1.1h9V22.2z M22.3,23.4c-0.9,0-1.7-0.8-1.7-1.7c0-0.9,0.8-1.7,1.7-1.7s1.7,0.8,1.7,1.7S23.2,23.4,22.3,23.4z
		 M24,8.7v5.6c0,1.2-1,2.3-2.3,2.3H8.2c-1.2,0-2.3-1-2.3-2.3V8.7V6.4h3.5c0.2,0.7,0.9,1.1,1.6,1.1h7.9c0.7,0,1.4-0.5,1.6-1.1H24V8.7
		z"/>
</g>
<g id="car" class="st0">
	<path class="st1" d="M27.6,6.4h-2.3V4.2c0-1.2-1-2.3-2.3-2.3H6.9c-1.2,0-2.3,1-2.3,2.3v2.3H2.4C1.8,6.4,1.2,7,1.2,7.6V11
		c0,0.6,0.5,1.1,1.1,1.1s1.1-0.5,1.1-1.1V7.6h1.1v15.8c0,0.8,0.5,1.6,1.1,1.9v1.4C5.8,28,6.8,29,8,29s2.3-1,2.3-2.3v-1.1h3.9h1.6
		h3.9v1.1c0,1.2,1,2.3,2.3,2.3c1.2,0,2.3-1,2.3-2.3v-1.4c0.7-0.4,1.1-1.1,1.1-1.9V7.6h1.1V11c0,0.6,0.5,1.1,1.1,1.1s1.1-0.5,1.1-1.1
		V7.6C28.7,7,28.2,6.4,27.6,6.4z M10.3,24.5H8c-0.6,0-1.1-0.5-1.1-1.1s0.5-1.1,1.1-1.1h2.3c0.6,0,1.1,0.5,1.1,1.1
		C11.4,24,10.9,24.5,10.3,24.5z M21.9,24.5h-2.3c-0.6,0-1.1-0.5-1.1-1.1s0.5-1.1,1.1-1.1h2.3c0.6,0,1.1,0.5,1.1,1.1
		S22.5,24.5,21.9,24.5z M24.2,17.7c0,0.6-0.6,1.1-1.3,1.3c0,0-2,0.8-7.2,0.9l0,0c-0.3,0-1.3,0-1.6,0l0,0C9,19.9,7,19.1,7,19.1
		c-0.7-0.2-1.3-0.7-1.3-1.3V5.3c0-0.6,0.5-1.1,1.1-1.1H23c0.6,0,1.1,0.5,1.1,1.1v12.4H24.2z"/>
</g>
<g id="transport_scolaire" class="st0">
	<g class="st2">
		<path class="st3" d="M24.6,4.2H28V1.9h-8c-1.2,0-2.3,1-2.3,2.3v2.3h-1.1c-0.6,0-1.1,0.5-1.1,1.1v4.5c0,0.6,0.5,1.1,1.1,1.1
			s1.1-0.5,1.1-1.1v11.3c0,0.8,0.5,1.6,1.1,1.9v1.4c0,1.2,1,2.3,2.3,2.3s2.3-1,2.3-2.3v-1.1h4.5v-3.4h-4.5v-1.1h4.5v-4.5h-6.8
			c-1.2,0-2.3-1-2.3-2.3V8.7V6.4h3.5c0.2,0.7,0.9,1.1,1.6,1.1h3.9V6.4h-3.4c-0.6,0-1.1-0.5-1.1-1.1C23.4,4.7,23.9,4.2,24.6,4.2z
			 M20.6,20c0.9,0,1.7,0.8,1.7,1.7s-0.8,1.7-1.7,1.7s-1.7-0.8-1.7-1.7S19.7,20,20.6,20z"/>
		<circle class="st3" cx="13.3" cy="16.8" r="2"/>
		<path class="st3" d="M12.7,19.2c0,0-0.1,0-0.2,0.1c-0.1,0-0.2,0.1-0.2,0.1c-0.2,0.1-0.5,0.3-0.8,0.6c-0.1-0.5-0.3-0.5-0.7-0.4
			c-0.7,0.1-0.9,3.8-0.9,3.8s1.5,0.8,1.7,0.7c0.2-0.1,0.2-1.4,0.2-1.4l0,0c0.1,0.1,0.3,0.1,0.4,0.2c0,0.7-0.1,1.4-0.5,2.3
			c-1.4,3.7-0.4,3.8-0.4,3.8s2.7-3.6,2.7-6.1C13.9,20.3,12.7,19.2,12.7,19.2z"/>
		<path class="st3" d="M13.6,25.9c0,0,0.8,2,1.3,3.1c1.2-0.6-0.3-4.6-0.6-4.9C14.1,24.9,13.6,25.9,13.6,25.9z"/>
		<path class="st3" d="M15.6,21.4c0,0-0.7-0.1-1.7-1c0,0,0.3,0.9,0.4,1.7c1.1,0.5,1.9,0.5,2.2,0.1C17,21.8,15.6,21.4,15.6,21.4z"/>
		<circle class="st3" cx="5.4" cy="16.8" r="2"/>
		<path class="st3" d="M4.8,19.2c-2,0.7,0.4,2.3-1,6S3.4,29,3.4,29s2.7-3.6,2.7-6.1C6,20.3,4.8,19.2,4.8,19.2z"/>
		<path class="st3" d="M5.7,25.9c0,0,0.8,2,1.3,3.1c1.2-0.6-0.3-4.6-0.6-4.9C6.2,24.9,5.7,25.9,5.7,25.9z"/>
		<path class="st3" d="M3.8,22.6c-0.1-3.3-0.3-3.3-1-3.1C2.2,19.6,2,23.4,2,23.4s1.5,0.8,1.7,0.7C3.9,24,3.8,22.6,3.8,22.6z"/>
		<path class="st3" d="M7.7,21.4c0,0-0.7-0.1-1.7-1c0,0,0.3,0.9,0.4,1.7c1.1,0.5,1.9,0.5,2.2,0.1C9.1,21.8,7.7,21.4,7.7,21.4z"/>
	</g>
</g>
<g id="navette" class="st0">
	<path class="st1" d="M25.1,10.4L25.1,10.4c0-0.1,0-5.6-2.3-5.6H7.1c-2.3,0-2.3,5.5-2.3,5.5v0.1c-0.6,0-1.1,0.5-1.1,1.1v1.1
		c0,0.6,0.5,1.1,1.1,1.1v6.8c0,1.8,1.6,2.7,2.3,3.1V25c0,0.6,0.5,1.1,1.1,1.1s1.1-0.5,1.1-1.1v-1.3l2.3,0.2h6.6l2.3-0.2V25
		c0,0.6,0.5,1.1,1.1,1.1s1.1-0.5,1.1-1.1v-1.4c0.7-0.4,2.2-1.2,2.3-3.1v-6.8c0.6,0,1.1-0.5,1.1-1.1v-1.1
		C26.2,10.9,25.7,10.4,25.1,10.4z M8.8,21.7c-0.9,0-1.7-0.8-1.7-1.7s0.8-1.7,1.7-1.7s1.7,0.8,1.7,1.7S9.8,21.7,8.8,21.7z M18.3,20.5
		h-6.6v-1.1h6.6V20.5z M21.1,21.7c-0.9,0-1.7-0.8-1.7-1.7s0.8-1.7,1.7-1.7c0.9,0,1.7,0.8,1.7,1.7S22,21.7,21.1,21.7z M23.9,12.3
		c0,0.8-0.7,1.5-1.5,1.5h-15c-0.8,0-1.5-0.7-1.5-1.5V7.6C6,7.3,6.3,7,6.6,7h16.8C23.7,7,24,7.3,24,7.6v4.7H23.9z"/>
</g>
<g id="train" class="st0">
	<g class="st2">
		<polygon class="st3" points="20.3,24.6 18,24.6 21.4,28 23.7,28 		"/>
		<polygon class="st3" points="6.2,28 8.4,28 11.8,24.6 9.6,24.6 		"/>
		<path class="st3" d="M23.6,13.1l0.1-5.3c0-1-0.3-2.1-0.9-2.9c-0.7-0.9-1.8-1.8-3.4-2H15l0,0h-4.4C8.9,3.1,7.8,4,7.1,4.9
			C6.5,5.7,6.2,6.7,6.2,7.8l0.1,5.3c-0.1,9,2.9,10.4,5.2,10.4h3.4l0,0h3.4C20.6,23.5,23.7,22.1,23.6,13.1z M11.7,20.6
			c-1.1,0-3.3-2-3.3-3.9c0-1.2,2.2-1.2,3.1-0.1c0.9,1,1.6,2.8,1.6,2.8C13.6,21.1,11.7,20.6,11.7,20.6z M14.9,10.3
			c-4.8,0-6.5-2.6-6.5-3.7c0-0.5,0.2-1,0.5-1.4c0.3-0.5,0.9-0.9,1.6-0.9h4.4l0,0h4.4c0.6,0,1.2,0.3,1.6,0.9c0.2,0.4,0.5,0.9,0.5,1.4
			C21.4,7.7,19.7,10.2,14.9,10.3z M16.7,19.4c0,0,0.7-1.8,1.6-2.8s3.1-1.1,3.1,0.1c0,1.9-2.2,3.9-3.3,3.9
			C18.1,20.6,16.2,21.1,16.7,19.4z"/>
	</g>
</g>
<g id="tram" class="st0">
	<g class="st2">
		<polygon class="st3" points="7,29 9.3,29 12.7,25.6 10.4,25.6 		"/>
		<polygon class="st3" points="19.5,25.6 17.3,25.6 20.6,29 22.9,29 		"/>
		<path class="st3" d="M9.1,23c0.1,0.1,0.1,0.1,0.2,0.2l0,0c0.6,0.6,1.5,1.3,2.8,1.3h5.7c1.3,0,2.2-0.7,2.8-1.3l0,0
			c0.1-0.1,0.1-0.2,0.2-0.2c0.3-0.3,0.5-0.7,0.6-1c0.5-1.3,1.1-3.3,1.1-5.9c0-4.7-0.9-8.5-0.9-8.5c-0.3-1.4-1.8-1.9-2.8-1.9h-1.9
			l1.9-2.8h1.4c0.3,0,0.5-0.2,0.5-0.5s-0.2-0.5-0.5-0.5H9.8c-0.3,0-0.5,0.2-0.5,0.5s0.2,0.5,0.5,0.5h1.4L13,5.7h-1.9
			c-1,0-2.5,0.4-2.8,1.9c0,0-0.9,3.8-0.9,8.5c0,2.6,0.6,4.6,1.1,5.9C8.6,22.3,8.8,22.6,9.1,23z M12.5,21.6c-0.7,0.7-1.9,0.7-2.7,0
			c-0.7-0.7-0.7-1.9,0-2.7C10.6,18.2,13.2,20.9,12.5,21.6z M20.1,21.6c-0.7,0.7-1.9,0.7-2.7,0c-0.7-0.7,1.9-3.4,2.7-2.7
			C20.8,19.7,20.8,20.9,20.1,21.6z M12.1,2.9h5.7l-1.9,2.8h-2L12.1,2.9z M9.2,9c0-0.3,0.3-0.5,0.6-0.5h10.4c0.3,0,0.5,0.2,0.6,0.5
			c0.2,1.2,0.6,4.2,0.6,5.5c0,1.6-2.2,3.4-6.3,3.4H15c-4.1,0-6.3-1.9-6.3-3.4C8.6,13.2,9,10.2,9.2,9z"/>
	</g>
</g>
<g id="metro" class="st0">
	<circle class="st1" cx="11" cy="23.9" r="1.7"/>
	<g class="st2">
		<circle class="st3" cx="18.8" cy="23.9" r="1.7"/>
		<path class="st3" d="M22.4,17c0-1.5-0.5-5.2-0.7-6.6c0-0.3-0.3-0.6-0.7-0.6h-6.1l0,0H8.8c-0.3,0-0.6,0.2-0.7,0.6
			c-0.2,1.4-0.7,5.1-0.7,6.6c0,1.9,2.6,1.9,7.5,1.9l0,0l0,0C19.8,18.9,22.4,18.9,22.4,17z"/>
		<path class="st3" d="M14.9,1.9L14.9,1.9L14.9,1.9L14.9,1.9L14.9,1.9C9.3,2,3.7,6.5,3.7,12.1V29h7.9c-0.9,0-2.1-0.5-2.8-0.9
			c-0.4-0.2-0.7-0.5-0.9-0.8C7.3,26.1,6,23.1,6,18.8C6,13.2,7.1,8.7,7.1,8.7c0.4-1.6,2.1-2.3,3.4-2.3h4.4l0,0h4.4
			c1.2,0,3,0.6,3.4,2.3c0,0,1.1,4.5,1.1,10.1c0,4.3-1.3,7.3-1.9,8.5c-0.2,0.4-0.5,0.7-0.9,0.8c-0.7,0.3-2,0.9-2.8,0.9h7.9V12.1
			C26.2,6.5,20.5,2,14.9,1.9z"/>
	</g>
</g>
<g id="avion" class="st0">
	<g class="st2">
		<path class="st3" d="M28.4,8.3c-0.5-1-2.9-2.2-6-0.9c0,0-15.4,6.8-15.8,7.1c-0.5,0.2-0.8,0-1.2-0.3c-0.8-0.6-1.9-1.4-2.2-1.6
			c-0.5-0.4-1.9-0.1-1.5,0.7s1.5,3.4,2,4.4c0.6,1.5,4,1.1,9.9-1.5c0.5-0.2,1.1-0.5,1.7-0.8l-1.5,7.9c-0.2,0.8,0,1,0.2,0.9l0.9-0.4
			c0.5-0.2,1.1-0.9,1.4-1.6l4.3-9.2C24.8,10.9,28.7,8.9,28.4,8.3z"/>
		<path class="st3" d="M7.4,9.2l3.5,2.1l3.9-1.7L10,8.1C9.2,7.8,8.3,7.8,7.8,8L7,8.4C6.7,8.5,6.7,8.8,7.4,9.2z"/>
	</g>
</g>
<g id="vls" class="st0">
	<path class="st1" d="M28.4,23.1H26v-0.5c1.3-0.9,2.2-2.3,2.2-4s-0.9-3.2-2.2-4V9c0-0.3-0.3-0.6-0.7-0.3l-2.5,1.7
		c-0.2,0.1-0.3,0.3-0.3,0.6v3c-0.4,0.1-0.8,0.2-1.1,0.4C20.1,11.2,19.2,8,19,7.1c-0.1-0.2-0.3-0.4-0.5-0.4h-3
		c-0.3,0-0.5,0.2-0.5,0.5s0.2,0.5,0.5,0.5h2.7c0.2,0.8,0.6,2.2,1.1,3.7l0,0c-3.6,1.9-4.1,5.4-4.2,6.7h-0.3l-4.6-9.2l0.3-0.1
		C12,8.6,11.9,8,11.9,8c0-0.5-0.9-0.5-0.9-0.5H7.5C7.1,7.7,7,7.8,7,7.8C6.6,7.9,6.8,9.1,6.8,9.1c0.1,0.5,0.4,0.6,0.4,0.6
		c0.2,0.1,0.7,0,0.7,0C8.6,9.4,9,9.3,9.1,9.2l1.3,2.5l-1.8,1.8c-0.7-0.4-1.5-0.6-2.4-0.6c-2.9,0-5.3,2.4-5.3,5.3
		c0,0.2,0.2,0.4,0.4,0.5h0.1c0.1,2,1.4,3.8,3.2,4.4h-3c-0.3,0-0.6,0.2-0.6,0.6c0,0.3,0.2,0.6,0.6,0.6h26.8c0.3,0,0.6-0.2,0.6-0.6
		C29,23.3,28.8,23.1,28.4,23.1z M20.9,15.8c0.5,1,1,2,1.6,2.9v3.6c-1.7-0.4-2.9-1.9-2.9-3.7C19.6,17.5,20.1,16.4,20.9,15.8z
		 M27.1,18.6c0,1.1-0.5,2.1-1.2,2.7v-5.5C26.7,16.5,27.1,17.5,27.1,18.6z M22.5,14.9v1.8c-0.3-0.5-0.5-1-0.7-1.5
		C22,15.1,22.2,15,22.5,14.9z M2.5,18.9l3.6,0.7h0.1c0.2,0,0.3-0.1,0.4-0.2L9,16c0.6,0.7,1,1.6,1,2.6c0,2.1-1.7,3.8-3.8,3.8
		C4.2,22.4,2.6,20.9,2.5,18.9z M11,18.6c0-1.3-0.6-2.5-1.4-3.4l0.2-0.3c0.1-0.2,0.1-0.5-0.1-0.7c-0.1-0.1-0.2-0.1-0.2-0.2l1.4-1.4
		l3.1,6.1c0.1,0.2,0.3,0.3,0.4,0.3h1.1c0.1,0,0.3-0.1,0.4-0.2c0.1-0.1,0.1-0.2,0.1-0.4c0,0-0.2-4.2,3.6-6.2c0.3,0.8,0.6,1.6,0.9,2.5
		c-1.1,0.9-1.9,2.2-1.9,3.8c0,2.1,1.4,3.9,3.3,4.5H7.7C9.6,22.5,11,20.7,11,18.6z"/>
</g>
<g id="bateau" class="st0">
	<g class="st2">
		<path class="st3" d="M25.7,15.2L15.2,12c-0.1,0-0.3,0-0.4,0L4.2,15.2c-0.3,0.1-0.6,0.4-0.5,0.8c0.2,2.6,1.4,4.7,2.3,6
			c0.2,0.3,0.2,0.8-0.2,1.1L4.5,24l0.6,0.9l2.7-1.8c0.3-0.2,0.6-0.2,0.8,0l2.5,1.7c0.3,0.2,0.6,0.2,0.8,0l2.5-1.7
			c0.3-0.2,0.6-0.2,0.8,0l2.5,1.7c0.3,0.2,0.6,0.2,0.8,0l2.5-1.7c0.3-0.2,0.6-0.2,0.8,0l2.7,1.8l0.6-0.9l-1.3-0.9
			c-0.4-0.2-0.4-0.7-0.2-1.1c0.9-1.3,2.1-3.4,2.3-6C26.2,15.6,26,15.3,25.7,15.2z"/>
		<path class="st3" d="M24,11.4V8.1c0-0.4-0.3-0.8-0.8-0.8H22c-0.4,0-0.8-0.3-0.8-0.8l0,0c0-0.4-0.3-0.8-0.8-0.8H15H9.5
			C9.1,5.7,8.7,6,8.7,6.5l0,0C8.7,7,8.4,7.3,8,7.3H6.8c-0.5,0-0.9,0.4-0.9,0.9v3.1c0,0.5,0.5,0.9,1,0.7l7.9-2.4c0.1,0,0.3,0,0.4,0
			l7.9,2.4C23.5,12.2,24,11.9,24,11.4z"/>
	</g>
</g>
<g id="velo" class="st0">
	<g class="st2">
		<circle class="st3" cx="16.7" cy="4.4" r="2"/>
		<path class="st3" d="M18.9,18.4c0.7,1.8,1.5,3.7,2.7,5.5c0.1,0.2,0.4,0.3,0.6,0.3c0.1,0,0.3,0,0.4-0.1c0.3-0.2,0.4-0.7,0.2-1
			c-1.4-2.2-2.4-4.8-3.1-6.9L19.5,16c-0.3-1-0.5-1.8-0.7-2.5l1.5,0.2h0.1c0.5,0,1-0.4,1-0.9c0-0.3,0-0.6-0.2-0.8
			c0.2-0.1,0.3-0.3,0.5-0.5c0.2-0.3,0.1-0.8-0.2-1c-0.3-0.2-0.8-0.1-1,0.2c-0.3,0.4-0.8,0.6-1.2,0.8l-1.8-0.2l-1.4-3.1
			C16,8.1,16,7.9,15.8,7.8V7.7l-2-1.4c-0.3-0.2-0.8,0-1.1,0.5l-3.6,5.4c-0.4,0.6-0.6,1.2-0.5,1.7c-0.2,0.1-0.2,0.3-0.2,0.6
			c0,1.4,0.6,1.3,1.5,0.9l0.8,0.5l-3.5,7.2c-0.1,0.2-0.1,0.5,0,0.7s0.4,0.3,0.6,0.3h4c0.1,0,0.1,0.1,0.1,0.1
			c0.2,0.1,0.3,0.1,0.5,0.1c0.3,0,0.5-0.1,0.7-0.2h1.3l0,0c0.1,0,0.2,0,0.3,0l0,0c0,0,0.1,0,0.1-0.1c0.1,0,0.1-0.1,0.2-0.1l0,0
			L18.9,18.4z M14.7,22l-0.1-0.4l1.6-3.7c0.2-0.5,0.1-1-0.2-1.4h2.3v0.1L14.7,22z M13.4,17.9l-0.2,0.4l-0.3-0.7L13.4,17.9z
			 M14.8,10.5l1,2.2c0.2,0.3,0.5,0.6,0.8,0.6l0.7,0.1c0.1,0.5,0.3,1.1,0.5,1.8h-3.9l-1-0.7c0.1-0.1,0.1-0.2,0.1-0.3
			c0-0.2-0.1-0.3-0.3-0.3L14.8,10.5z M11.5,17.7l1,2.5l-0.3,0.7c-0.2-0.3-0.4-0.6-0.7-0.9l-0.8,1.6c0.1,0.1,0.1,0.2,0.2,0.3h0.8
			l-0.3,0.8v0.1H9L11.5,17.7z"/>
		<path class="st3" d="M7.8,26.9c-1.9,0-3.4-1.5-3.4-3.4c0-1.8,1.4-3.3,3.2-3.4l0.8-1.6c-0.2,0-0.4-0.1-0.6-0.1
			c-2.8,0-5.1,2.3-5.1,5.1s2.3,5.1,5.1,5.1c2.2,0,4.1-1.4,4.8-3.4h-1.8C10.2,26.2,9.1,26.9,7.8,26.9z"/>
		<path class="st3" d="M22.1,18.5c-0.2,0-0.5,0-0.7,0.1c0.2,0.5,0.4,1.1,0.7,1.6l0,0c1.9,0,3.4,1.5,3.4,3.4S24,27,22.1,27
			s-3.4-1.5-3.4-3.4c0-0.7,0.2-1.3,0.5-1.8c-0.3-0.6-0.5-1.1-0.8-1.7C17.5,21,17,22.3,17,23.6c0,2.8,2.3,5.1,5.1,5.1
			s5.1-2.3,5.1-5.1S24.9,18.5,22.1,18.5z"/>
	</g>
</g>
<g id="marche" class="st0">
	<g class="st2">
		<circle class="st3" cx="15.1" cy="5.4" r="2.3"/>
		<path class="st3" d="M19.4,14.2c-0.6-0.5-1-0.8-1-0.8l-1.3-3.7c0-0.2-0.1-0.3-0.2-0.4c-0.6-1.2-2-1.2-2-1.2
			c-1.3-0.1-2.1,0.6-2.1,0.6L9.4,11c-0.3,0.2-0.6,0.7-0.5,1c0,0,0.9,2.1,1.3,2.7c0.3,0.7,1,1.7,1.5,1.6c0.7-0.1,0.5-1,0.2-1.7
			l-0.9-2l2.3-1.7l-0.7,4.3c0,0.4-0.4,5.8-0.4,5.8s-1.6,3.3-2.3,5.1c-0.6,1.6,1.1,1.8,1.6,0.9c0.3-0.5,2.1-4.3,2.1-4.3l1.1-2.7
			l1.1,1.9c0,0,1.7,4.7,1.9,5.3c0.2,0.5,1.9,1,1.6-1c-0.4-2-1.7-6-1.7-6L16.4,17l0.3-2.4c0.1,0.2,0.3,0.4,0.6,0.6
			c0,0,1.5,0.9,2.1,1.3c0.8,0.4,1.5,0.2,1.6-0.3C21.1,15.3,20.2,14.8,19.4,14.2z"/>
	</g>
</g>
<g id="auto_partage" class="st0">
	<path class="st1" d="M25.6,12.9c0.6,0,1.1-0.5,1.1-1.1s-0.5-1.1-1.1-1.1H24l0,0l-0.5-3.4c-0.1-0.7-0.6-1.2-1.3-1.4
		C20.9,5.4,18.5,5,15.7,5l0,0h-0.1h-0.1h-0.1h-0.1l0,0c-2.8,0-5.1,0.5-6.4,0.8C8.2,5.9,7.7,6.5,7.6,7.2l-0.5,3.4l0,0H5.4
		c-0.6,0-1.1,0.5-1.1,1.1s0.5,1.1,1.1,1.1h0.3C5,13.5,4.4,14.4,4.4,15c0,0.9,0.7,3.9,1,5.1c0.1,0.3,0.3,0.6,0.5,0.9l0.8,0.8v1.6
		c0,0.8,0.6,1.6,1.4,1.8c1.1,0.2,2-0.6,2-1.7V23h11v0.6c0,1,0.9,1.8,2,1.7c0.8-0.1,1.4-0.9,1.4-1.8v-1.6l0.8-0.8
		c0.2-0.2,0.4-0.5,0.5-0.9c0.3-1.2,1-4.2,1-5.1c0-0.6-0.7-1.5-1.3-2.2C25.5,12.9,25.6,12.9,25.6,12.9z M7.9,11.3l0.8-3.2
		C8.8,7.4,9.3,6.8,10,6.5C11.3,6,13.2,6,15.5,6s4.2,0,5.5,0.5c0.7,0.2,1.1,0.9,1.3,1.5l0.8,3.2c0.1,0.3-0.1,0.6-0.4,0.6
		c-0.3,0.1-0.8,0.1-1.3,0.2c-0.3-0.4-1-0.8-1.7-0.9c0,0-0.4-0.1-0.2-0.5c0.2-0.3,0.3-0.6,0.4-0.7c0,0,0.3-0.3,0.4-0.7
		c0-0.4-0.1-0.4-0.1-0.4c0.1-0.4,0.2-2-0.8-1.8c-0.2-0.3-1.3-0.6-1.8,0.3c-0.3,0.4-0.3,1.1-0.2,1.6c0,0-0.1,0-0.1,0.2
		s0.1,0.5,0.2,0.7c0,0.1,0.1,0.1,0.2,0.1c0,0,0.1,0.4,0.4,0.8c0.1,0.3-0.2,0.5-0.2,0.5c-1,0.2-1.9,0.7-1.9,1.3c0,0,0,0.1,0,0.2
		c-0.1,0-0.3,0-0.4,0c-0.1,0-0.2,0-0.3,0c0-0.1,0-0.2,0-0.2c0-0.6-0.9-1.1-1.9-1.3c0,0-0.4-0.1-0.2-0.5c0.2-0.3,0.3-0.6,0.4-0.7
		c0,0,0.3-0.3,0.4-0.7c0-0.4-0.1-0.4-0.1-0.4c0.1-0.4,0.2-2-0.8-1.8c-0.2-0.3-1.3-0.6-1.8,0.3C10.9,7.9,10.8,8.5,11,9
		c0,0-0.1,0-0.1,0.2s0.1,0.5,0.2,0.7c0,0.1,0.1,0.1,0.2,0.1c0,0,0.1,0.4,0.4,0.8c0.1,0.3-0.2,0.5-0.2,0.5c-0.8,0.1-1.5,0.5-1.7,0.9
		c-0.6-0.1-1-0.2-1.4-0.3C8,11.9,7.9,11.6,7.9,11.3z M9.4,19c-1.2,0.6-2.8-0.2-2.9-1.7c-0.2-1.6,0.9-2.1,2.2-1
		C10.3,17.7,10.9,18.3,9.4,19z M18.8,21.9h-6.5c-0.6,0-1.1-0.5-1.1-1.1s0.5-1.1,1.1-1.1h6.5c0.6,0,1.1,0.5,1.1,1.1
		S19.4,21.9,18.8,21.9z M24.6,17.3c-0.2,1.5-1.7,2.3-2.9,1.7c-1.5-0.7-0.9-1.3,0.8-2.7C23.7,15.2,24.7,15.7,24.6,17.3z"/>
</g>
<g id="voiture_libre_service" class="st0">
	<g class="st2">
		<path class="st3" d="M12.7,21.4c-0.2-0.8-1.2-4.7-1.2-5.9v6.8v1.1v2.3h2.3V24v-1.2l-1-1L12.7,21.4z"/>
		<path class="st3" d="M17,8.4c0.2-0.7,0.6-1.3,1.3-1.5c1.3-0.5,3.2-0.5,5.5-0.5c1.3,0,2.5,0,3.5,0.1v-1c-1-0.1-2.1-0.2-3.3-0.2l0,0
			h-0.1h-0.1h-0.1h-0.1l0,0c-2.8,0-5.1,0.5-6.4,0.8c-0.7,0.2-1.2,0.7-1.3,1.4l-0.5,3.4l0,0h-1.6c-0.6,0-1.1,0.5-1.1,1.1
			s0.5,1.1,1.1,1.1H14c-0.7,0.7-1.3,1.6-1.3,2.2c0,0.9,0.7,3.9,1,5.1c0.1,0.3,0.3,0.6,0.5,0.9l0.8,0.8v1.6c0,0.8,0.6,1.6,1.4,1.8
			c1.1,0.2,2-0.6,2-1.7v-0.6h9V22c-0.1,0-0.2,0.1-0.3,0.1h-6.5c-0.6,0-1.1-0.5-1.1-1.1s0.5-1.1,1.1-1.1h6.5c0.1,0,0.2,0,0.3,0.1
			v-7.1c-1.2,0.1-2.4,0.3-3.5,0.3c-2.7,0-5.9-0.6-7.2-0.9c-0.3-0.1-0.5-0.4-0.4-0.6L17,8.4z M16.9,16.6c1.7,1.4,2.2,2.1,0.8,2.7
			c-1.2,0.6-2.8-0.2-2.9-1.7C14.6,16,15.7,15.5,16.9,16.6z"/>
		<path class="st3" d="M11.6,11.4c0-0.9,0.7-1.6,1.6-1.6c-1.1-2.1-3.4-3.6-6-3.4c-3.3,0.3-5.7,3.1-5.7,6.4v12.7h2.3v-2.2v-1.1v-9.4
			c0-2.1,1.5-3.9,3.6-4.1c2.4-0.2,4.3,1.6,4.3,3.9v-1.2H11.6z"/>
	</g>
</g>
<g id="voiture" class="st0">
	<path class="st1" d="M24.9,13c0.6,0,1.1-0.5,1.1-1.1s-0.5-1.1-1.1-1.1h-1.6l0,0l-0.5-3.4c-0.1-0.7-0.6-1.2-1.3-1.4
		c-1.3-0.3-3.6-0.8-6.4-0.8l0,0C15,5,15,5,15,5h-0.1h-0.1h-0.1l0,0c-2.8,0-5.1,0.5-6.4,0.8C7.5,6,7,6.5,6.9,7.2l-0.5,3.4l0,0H4.8
		c-0.6,0-1.1,0.5-1.1,1.1S4.1,13,4.8,13H5c-0.7,0.7-1.3,1.6-1.3,2.2c0,0.9,0.7,3.9,1,5.1c0.1,0.3,0.3,0.6,0.5,0.9L6,22v1.6
		c0,0.8,0.6,1.6,1.4,1.8c1.1,0.2,2-0.6,2-1.7v-0.6h11v0.6c0,1,0.9,1.8,2,1.7c0.8-0.1,1.4-0.9,1.4-1.8V22l0.8-0.8
		c0.2-0.2,0.4-0.5,0.5-0.9c0.3-1.2,1-4.2,1-5.1c0-0.6-0.7-1.5-1.3-2.2C24.8,13,24.9,13,24.9,13z M7.2,11.4L8,8.2
		c0.2-0.7,0.6-1.3,1.3-1.5c1.3-0.5,3.2-0.5,5.5-0.5s4.2,0,5.5,0.5c0.7,0.2,1.1,0.9,1.3,1.5l0.8,3.2c0.1,0.3-0.1,0.6-0.4,0.6
		c-1.3,0.3-4.5,0.8-7.2,0.9c-2.7,0-5.9-0.6-7.2-0.9C7.3,12,7.2,11.7,7.2,11.4z M8.7,19.1c-1.2,0.6-2.8-0.2-2.9-1.7
		c-0.2-1.6,0.9-2.1,2.2-1C9.6,17.8,10.2,18.4,8.7,19.1z M18.1,21.9h-6.5c-0.6,0-1.1-0.5-1.1-1.1s0.5-1.1,1.1-1.1h6.5
		c0.6,0,1.1,0.5,1.1,1.1S18.7,21.9,18.1,21.9z M23.9,17.4c-0.2,1.5-1.7,2.3-2.9,1.7c-1.5-0.7-0.9-1.3,0.8-2.7
		C23,15.2,24.1,15.7,23.9,17.4z"/>
</g>
<g id="tad" class="st0">
	<path class="st1" d="M7.7,19.4c1.2-1,2.4-1.7,3.6-0.6l0.7,0.6c0.5,0.5,1.5,2.6,5.2-1.7s1.5-5,1-5.4l-0.7-0.6
		c-1.2-1-0.7-2.3,0.1-3.7l0.5-0.8C19,5.9,19.9,5,21.1,6l0.6,0.6c0.5,0.4,2,1.6,2.4,4c0.4,2.8-0.9,6.1-4,9.7s-6.1,5.4-9,5.3
		c-2.4,0-3.8-1.3-4.3-1.8l-0.6-0.6C5.1,22.1,5.8,21,7,20L7.7,19.4z"/>
</g>
<g id="taxi" class="st0">
	<g class="st2">
		<path class="st3" d="M12,6.2h5.6c0.2,0,0.3-0.2,0.2-0.4l-0.7-1.5C17,4.1,16.8,4,16.5,4h-3.4c-0.3,0-0.5,0.1-0.6,0.4l-0.7,1.5
			C11.7,6,11.8,6.2,12,6.2z"/>
		<path class="st3" d="M24.9,15c0.6,0,1.1-0.5,1.1-1.1s-0.5-1.1-1.1-1.1h-1.6l0,0l-0.5-3.4c-0.1-0.7-0.6-1.2-1.3-1.4
			c-1.3-0.3-3.6-0.8-6.4-0.8l0,0C15,7,15,7,15,7h-0.1h-0.1h-0.1l0,0c-2.8,0-5.1,0.5-6.4,0.8C7.5,8,7,8.5,6.9,9.2l-0.5,3.4l0,0H4.8
			c-0.6,0-1.1,0.5-1.1,1.1S4.1,15,4.8,15H5c-0.7,0.7-1.3,1.6-1.3,2.2c0,0.9,0.7,3.9,1,5.1c0.1,0.3,0.3,0.6,0.5,0.9L6,24v1.6
			c0,0.8,0.6,1.6,1.4,1.8c1.1,0.2,2-0.6,2-1.7v-0.6h11v0.6c0,1,0.9,1.8,2,1.7c0.8-0.1,1.4-0.9,1.4-1.8V24l0.8-0.8
			c0.2-0.2,0.4-0.5,0.5-0.9c0.3-1.2,1-4.2,1-5.1c0-0.6-0.7-1.5-1.3-2.2C24.8,15,24.9,15,24.9,15z M7.2,13.4L8,10.2
			c0.2-0.7,0.6-1.3,1.3-1.5c1.3-0.5,3.2-0.5,5.5-0.5s4.2,0,5.5,0.5c0.7,0.2,1.1,0.9,1.3,1.5l0.8,3.2c0.1,0.3-0.1,0.6-0.4,0.6
			c-1.3,0.3-4.5,0.8-7.2,0.9c-2.7,0-5.9-0.6-7.2-0.9C7.3,14,7.2,13.7,7.2,13.4z M8.7,21.1c-1.2,0.6-2.8-0.2-2.9-1.7
			c-0.2-1.6,0.9-2.1,2.2-1C9.6,19.8,10.2,20.4,8.7,21.1z M18.1,23.9h-6.5c-0.6,0-1.1-0.5-1.1-1.1s0.5-1.1,1.1-1.1h6.5
			c0.6,0,1.1,0.5,1.1,1.1S18.7,23.9,18.1,23.9z M23.9,19.4c-0.2,1.5-1.7,2.3-2.9,1.7c-1.5-0.7-0.9-1.3,0.8-2.7
			C23,17.2,24.1,17.7,23.9,19.4z"/>
	</g>
</g>
<g>
	<path class="st3" d="M27.1,2.4L2.7,8.9C2.4,9,2.3,9.2,2.4,9.5c0.1,0.2,0.3,0.4,0.5,0.3l24.4-6.5c0.2-0.1,0.3-0.4,0.3-0.6
		C27.5,2.5,27.3,2.3,27.1,2.4z"/>
	<path class="st3" d="M17.6,12.8h-0.9l-1-5.3l-1.4,0.4l-0.9,5h-0.9c-0.2,0-0.4,0.2-0.4,0.4v0.9H18v-0.9C18,13,17.8,12.8,17.6,12.8z
		 M14.8,12.8l0.3-1.7l0.3,1.7H14.8z"/>
	<path class="st3" d="M22.9,15.1c-0.4-0.4-0.9-0.6-1.4-0.6H8.6c-0.5,0-1,0.2-1.4,0.6c-0.3,0.4-0.5,0.8-0.6,1.4l-1.1,6
		c0,0.2,0,0.3,0,0.5l1,3.7c0.3,1,0.9,1.9,1.9,1.9h13.3c1,0,1.6-0.9,1.9-1.9l1-3.7c0-0.2,0-0.3,0-0.5l-1.1-6
		C23.4,15.9,23.2,15.5,22.9,15.1z M11.2,22.2c0,0.3-0.2,0.6-0.6,0.6H7.5c-0.3,0-0.6-0.3-0.6-0.6L8,16.5c0-0.2,0.1-0.3,0.2-0.4
		c0.1-0.1,0.3-0.2,0.4-0.2h2c0.3,0,0.6,0.2,0.6,0.6V22.2z M14.6,26.7c0,0.3-0.2,0.6-0.6,0.6h-1.4c-0.3,0-0.5-0.2-0.5-0.6V16.4
		c0-0.3,0.2-0.6,0.5-0.6H14c0.3,0,0.6,0.2,0.6,0.6V26.7z M18,26.7c0,0.4-0.2,0.6-0.5,0.6h-1.4c-0.4,0-0.6-0.3-0.6-0.6V16.4
		c0-0.4,0.3-0.6,0.6-0.6h1.4c0.3,0,0.5,0.3,0.5,0.6V26.7z M22.6,22.8h-3.1c-0.4,0-0.6-0.3-0.6-0.6v-5.7c0-0.4,0.3-0.6,0.6-0.6h2
		c0.1,0,0.3,0.1,0.4,0.2c0.1,0.1,0.2,0.2,0.2,0.4l1.1,5.7C23.2,22.5,22.9,22.8,22.6,22.8z"/>
</g>
</svg>
