<?xml version="1.0" encoding="utf-8"?>
<!-- Generator: Adobe Illustrator 19.2.1, SVG Export Plug-In . SVG Version: 6.00 Build 0)  -->
<svg version="1.0" id="Calque_1" xmlns="http://www.w3.org/2000/svg" xmlns:xlink="http://www.w3.org/1999/xlink" x="0px" y="0px"
	 viewBox="0 0 30 30" style="enable-background:new 0 0 30 30;" xml:space="preserve">
<style type="text/css">
	.st0{display:none;}
	.st1{display:inline;fill:#222221;}
	.st2{display:inline;}
	.st3{fill:#222221;}
</style>
<g>
	<path class="st3" d="M27.1,2.4L2.7,8.9C2.4,9,2.3,9.2,2.4,9.5c0.1,0.2,0.3,0.4,0.5,0.3l24.4-6.5c0.2-0.1,0.3-0.4,0.3-0.6
		C27.5,2.5,27.3,2.3,27.1,2.4z"/>
	<path class="st3" d="M17.6,12.8h-0.9l-1-5.3l-1.4,0.4l-0.9,5h-0.9c-0.2,0-0.4,0.2-0.4,0.4v0.9H18v-0.9C18,13,17.8,12.8,17.6,12.8z
		 M14.8,12.8l0.3-1.7l0.3,1.7H14.8z"/>
	<path class="st3" d="M22.9,15.1c-0.4-0.4-0.9-0.6-1.4-0.6H8.6c-0.5,0-1,0.2-1.4,0.6c-0.3,0.4-0.5,0.8-0.6,1.4l-1.1,6
		c0,0.2,0,0.3,0,0.5l1,3.7c0.3,1,0.9,1.9,1.9,1.9h13.3c1,0,1.6-0.9,1.9-1.9l1-3.7c0-0.2,0-0.3,0-0.5l-1.1-6
		C23.4,15.9,23.2,15.5,22.9,15.1z M11.2,22.2c0,0.3-0.2,0.6-0.6,0.6H7.5c-0.3,0-0.6-0.3-0.6-0.6L8,16.5c0-0.2,0.1-0.3,0.2-0.4
		c0.1-0.1,0.3-0.2,0.4-0.2h2c0.3,0,0.6,0.2,0.6,0.6V22.2z M14.6,26.7c0,0.3-0.2,0.6-0.6,0.6h-1.4c-0.3,0-0.5-0.2-0.5-0.6V16.4
		c0-0.3,0.2-0.6,0.5-0.6H14c0.3,0,0.6,0.2,0.6,0.6V26.7z M18,26.7c0,0.4-0.2,0.6-0.5,0.6h-1.4c-0.4,0-0.6-0.3-0.6-0.6V16.4
		c0-0.4,0.3-0.6,0.6-0.6h1.4c0.3,0,0.5,0.3,0.5,0.6V26.7z M22.6,22.8h-3.1c-0.4,0-0.6-0.3-0.6-0.6v-5.7c0-0.4,0.3-0.6,0.6-0.6h2
		c0.1,0,0.3,0.1,0.4,0.2c0.1,0.1,0.2,0.2,0.2,0.4l1.1,5.7C23.2,22.5,22.9,22.8,22.6,22.8z"/>
</g>
</svg>
