<?xml version="1.0" encoding="utf-8"?>
<!-- Generator: Adobe Illustrator 19.2.1, SVG Export Plug-In . SVG Version: 6.00 Build 0)  -->
<svg version="1.0" id="Calque_1" xmlns="http://www.w3.org/2000/svg" xmlns:xlink="http://www.w3.org/1999/xlink" x="0px" y="0px"
	 viewBox="0 0 30 30" style="enable-background:new 0 0 30 30;" xml:space="preserve">
<style type="text/css">
	.st0{display:none;}
	.st1{display:inline;fill:#222221;}
	.st2{display:inline;}
	.st3{fill:#222221;}
</style>
<g id="metro">
	<circle class="st3" cx="11" cy="23.6" r="1.7"/>
	<g>
		<circle class="st3" cx="18.8" cy="23.6" r="1.7"/>
		<path class="st3" d="M22.4,16.7c0-1.5-0.5-5.2-0.7-6.6c0-0.3-0.3-0.6-0.7-0.6H8.8c-0.3,0-0.6,0.2-0.7,0.6
			c-0.2,1.4-0.7,5.1-0.7,6.6C7.4,18.6,22.4,18.6,22.4,16.7z"/>
		<path class="st3" d="M14.9,1.6L14.9,1.6L14.9,1.6L14.9,1.6L14.9,1.6C9.3,1.7,3.7,6.2,3.7,11.8v16.9h7.9c-0.9,0-2.1-0.5-2.8-0.9
			c-0.4-0.2-0.7-0.5-0.9-0.8C7.3,25.8,6,22.8,6,18.5C6,12.9,7.1,8.4,7.1,8.4c0.4-1.6,2.1-2.3,3.4-2.3h8.8c1.2,0,3,0.6,3.4,2.3
			c0,0,1.1,4.5,1.1,10.1c0,4.3-1.3,7.3-1.9,8.5c-0.2,0.4-0.3,0.6-0.9,0.9c-0.8,0.5-2,0.8-2.8,0.8h7.9V11.8
			C26.2,6.2,20.5,1.7,14.9,1.6z"/>
	</g>
</g>
</svg>
