<?xml version="1.0" encoding="utf-8"?>
<!-- Generator: Adobe Illustrator 19.2.1, SVG Export Plug-In . SVG Version: 6.00 Build 0)  -->
<svg version="1.0" id="Calque_1" xmlns="http://www.w3.org/2000/svg" xmlns:xlink="http://www.w3.org/1999/xlink" x="0px" y="0px"
	 viewBox="0 0 30 30" style="enable-background:new 0 0 30 30;" xml:space="preserve">
<style type="text/css">
	.st0{display:none;}
	.st1{display:inline;fill:#222221;}
	.st2{display:inline;}
	.st3{fill:#222221;}
</style>
<g>
	<path class="st3" d="M11.9,6.2h0.2h5.4h0.2c0.2,0,0.3-0.2,0.2-0.3l-0.7-1.5C17.1,4.1,16.9,4,16.6,4h-0.2h-3.2H13
		c-0.3,0-0.5,0.1-0.6,0.4l-0.7,1.5C11.6,6,11.7,6.2,11.9,6.2z"/>
	<path class="st3" d="M25.9,16.8c-0.2-0.6-0.7-1.2-1.2-1.8h0.1c0.6,0,1.1-0.5,1.1-1.1c0-0.6-0.5-1.1-1.1-1.1h-1.4l0,0l-0.5-3.6
		c-0.1-0.7-0.6-1.2-1.4-1.4C20.1,7.5,17.8,7,15,7h0h-0.4h0c-2.8,0-5.1,0.5-6.4,0.8C7.4,8,6.9,8.5,6.8,9.2l-0.5,3.6l0,0H4.8
		c-0.6,0-1.1,0.5-1.1,1.1c0,0.6,0.5,1.1,1.1,1.1h0.1c-0.6,0.6-1,1.3-1.2,1.8c0,0.1-0.1,0.3-0.1,0.4c0,0.9,0.7,3.9,1,5.1
		c0.1,0.4,0.3,0.7,0.5,0.9L5.9,24v1.6c0,0.9,0.6,1.7,1.4,1.8c1.1,0.2,2-0.6,2-1.7v-0.6h11v0.6c0,1.1,0.9,1.9,2,1.7
		c0.8-0.1,1.4-0.9,1.4-1.8V24l0.8-0.8c0.2-0.2,0.4-0.5,0.5-0.9c0.3-1.2,1-4.2,1-5.1C26,17.1,26,17,25.9,16.8z M23.8,19.4
		c-0.1,1.1-1,1.8-1.9,1.9c-0.3,0-0.6-0.1-0.9-0.2c-1.5-0.7-0.9-1.3,0.7-2.7c0.8-0.6,1.4-0.7,1.8-0.4C23.8,18.3,23.9,18.8,23.8,19.4z
		 M8.6,21.1c-0.3,0.1-0.6,0.2-0.9,0.2c-0.9-0.1-1.8-0.8-1.9-1.9c-0.1-0.6,0-1.1,0.3-1.4c0.4-0.3,1.1-0.2,1.8,0.4
		C9.5,19.8,10.1,20.4,8.6,21.1z M7.7,14c-0.3,0-0.5-0.3-0.4-0.6l0.8-3.2c0.2-0.6,0.6-1.3,1.3-1.5c1.3-0.5,3.1-0.5,5.4-0.5
		c2.3,0,4.1,0,5.4,0.5c0.7,0.2,1.1,0.9,1.3,1.5l0.8,3.2c0.1,0.3-0.1,0.6-0.4,0.6c-1.3,0.3-4.4,0.8-7.1,0.9C12.1,14.8,9,14.3,7.7,14z
		 M11.6,23.9c-0.6,0-1.1-0.5-1.1-1.1c0-0.6,0.5-1.1,1.1-1.1H18c0.6,0,1.1,0.5,1.1,1.1c0,0.6-0.5,1.1-1.1,1.1H11.6z"/>
</g>
</svg>
