<?xml version="1.0" encoding="utf-8"?>
<!-- Generator: Adobe Illustrator 19.2.1, SVG Export Plug-In . SVG Version: 6.00 Build 0)  -->
<svg version="1.0" id="Calque_1" xmlns="http://www.w3.org/2000/svg" xmlns:xlink="http://www.w3.org/1999/xlink" x="0px" y="0px"
	 viewBox="0 0 30 30" style="enable-background:new 0 0 30 30;" xml:space="preserve">
<style type="text/css">
	.st0{display:none;}
	.st1{display:inline;fill:#222221;}
	.st2{display:inline;}
	.st3{fill:#222221;}
</style>
<g id="marche">
	<g>
		<circle class="st3" cx="15.1" cy="5.4" r="2.3"/>
		<path class="st3" d="M19.4,14.2c-0.6-0.5-1-0.8-1-0.8s-1.4-4-1.5-4.1c-0.6-1.2-2-1.2-2-1.2c-1.3-0.1-2.1,0.6-2.1,0.6L9.4,11
			c-0.3,0.2-0.6,0.7-0.5,1c0,0,0.9,2.1,1.3,2.7c0.3,0.7,1,1.7,1.5,1.6c0.7-0.1,0.5-1,0.2-1.7l-0.9-2l2.3-1.7l-0.7,4.3
			c0,0.4-0.4,5.8-0.4,5.8s-1.6,3.3-2.3,5.1c-0.6,1.6,1.1,1.8,1.6,0.9c0.3-0.5,2.1-4.3,2.1-4.3l1.1-2.7l1.1,1.9c0,0,1.7,4.7,1.9,5.3
			c0.2,0.5,1.9,1,1.6-1c-0.4-2-1.7-6-1.7-6L16.4,17l0.3-2.4c0.1,0.2,0.3,0.4,0.6,0.6c0,0,1.5,0.9,2.1,1.3c0.8,0.4,1.5,0.2,1.6-0.3
			C21.1,15.3,20.2,14.8,19.4,14.2z"/>
	</g>
</g>
</svg>
