<!-- Generated by IcoMoon.io -->
<svg version="1.1" xmlns="http://www.w3.org/2000/svg" width="1024" height="1024" viewBox="0 0 1024 1024">
<g id="icomoon-ignore">
</g>
<path d="M654.812 423.996c-46.778 0-93.562 35.038-105.226 35.038-11.746 0-35.076 0-35.076-23.37 0-23.294 105.23-105.116 105.23-128.608 0-23.33-11.704-46.7-81.824-46.7-70.15 0-128.56 105.154-128.56 140.27 0 34.998 35.074 70.15 35.074 81.818 0 11.626-23.406 35.038-35.074 35.038s-93.57-93.528-105.238-93.528c-11.662 0-58.404 23.45-58.404 93.528 0 70.072 116.856 116.856 140.228 116.856 23.406 0 93.562-35.038 116.856-11.668 23.402 23.336-93.526 116.856-93.526 128.56 0 11.746 23.414 46.822 93.526 46.822 70.186 0 116.936-105.236 116.936-140.348 0-35.038-23.414-81.702-23.414-81.702s-11.71-46.864 11.704-46.864c23.376 0 116.85 105.194 128.602 105.194 11.668 0 46.744-11.668 46.744-81.818-0.072-69.986-81.818-128.518-128.56-128.518zM514.512 599.342c-32.28 0-58.488-26.202-58.488-58.41 0-32.322 26.208-58.488 58.488-58.488s58.482 26.166 58.482 58.488c0 32.208-26.208 58.41-58.482 58.41zM176.062 487.23c-0.242-1.65-0.242-1.65-0.536-4.078 0-190.446 154.414-304.658 344.818-304.658 101.188 0 192.090 43.706 255.168 113.14l-50.616 50.544 151.974 23.37-11.746-163.598-44.502 44.508c-74.956-84.582-184.188-138.034-306.11-138.034-225.888 0-409.1 183.212-409.1 409.1 0 3.384-0.548 3.072 4.916 0l65.734-30.292zM907.456 453l-56.006 23.612c8.88 30.522 13.668 13.384 13.668 46.82 0 190.368-154.33 344.774-344.782 344.774-127.446 0-238.424-69.156-298.118-171.954l46.82-26.756-140.228-58.452-23.4 151.986 59.126-33.846c71.71 118.26 201.546 197.432 349.974 197.432 225.882 0 409.1-183.212 409.1-409.1-0.006-39.508-5.758-28.358-16.154-64.518z"></path>
</svg>
