<?xml version="1.0" encoding="utf-8"?>
<!-- Generator: Adobe Illustrator 19.2.1, SVG Export Plug-In . SVG Version: 6.00 Build 0)  -->
<svg version="1.0" xmlns="http://www.w3.org/2000/svg" xmlns:xlink="http://www.w3.org/1999/xlink" x="0px" y="0px"
	 viewBox="0 0 30 30" style="enable-background:new 0 0 30 30;" xml:space="preserve">
<style type="text/css">
	.st0{display:none;}
	.st1{display:inline;fill:#222221;}
	.st2{display:inline;}
	.st3{fill:#222221;}
</style>
<g id="velo">
	<g>
		<circle class="st3" cx="16.7" cy="4.4" r="2"/>
		<path class="st3" d="M18.9,18.4c0.7,1.8,1.5,3.7,2.7,5.5c0.1,0.2,0.4,0.3,0.6,0.3c0.1,0,0.3,0,0.4-0.1c0.3-0.2,0.4-0.7,0.2-1
			c-1.4-2.2-2.4-4.8-3.1-6.9L19.5,16c-0.3-1-0.5-1.8-0.7-2.5l1.5,0.2c0,0,0.1,0,0.1,0c0.5,0,1-0.4,1-0.9c0-0.3,0-0.6-0.2-0.8
			c0.2-0.1,0.3-0.3,0.5-0.5c0.2-0.3,0.1-0.8-0.2-1c-0.3-0.2-0.8-0.1-1,0.2c-0.3,0.4-0.8,0.6-1.2,0.8l-1.8-0.2l-1.4-3.1
			C16,8.1,16,7.9,15.8,7.8c0,0,0-0.1,0-0.1l-2-1.4c-0.3-0.2-0.8,0-1.1,0.5l-3.6,5.4c-0.4,0.6-0.6,1.2-0.5,1.7
			c-0.2,0.1-0.2,0.3-0.2,0.6c0,1.4,0.6,1.3,1.5,0.9l0.8,0.5l-3.5,7.2c-0.1,0.2-0.1,0.5,0,0.7c0.1,0.2,0.4,0.3,0.6,0.3h4
			c0.1,0,0.1,0.1,0.1,0.1c0.2,0.1,0.3,0.1,0.5,0.1c0.3,0,0.5-0.1,0.7-0.2h1.3c0,0,0,0,0,0c0.1,0,0.2,0,0.3,0c0,0,0,0,0,0
			c0,0,0.1,0,0.1-0.1c0.1,0,0.1-0.1,0.2-0.1c0,0,0,0,0,0L18.9,18.4z M14.7,22l-0.1-0.4l1.6-3.7c0.2-0.5,0.1-1-0.2-1.4h2.3
			c0,0,0,0.1,0,0.1L14.7,22z M13.4,17.9l-0.2,0.4l-0.3-0.7L13.4,17.9z M14.8,10.5l1,2.2c0.2,0.3,0.5,0.6,0.8,0.6l0.7,0.1
			c0.1,0.5,0.3,1.1,0.5,1.8h-3.9l-1-0.7c0.1-0.1,0.1-0.2,0.1-0.3c0-0.2-0.1-0.3-0.3-0.3L14.8,10.5z M11.5,17.7l1,2.5l-0.3,0.7
			c-0.2-0.3-0.4-0.6-0.7-0.9l-0.8,1.6c0.1,0.1,0.1,0.2,0.2,0.3h0.8l-0.3,0.8c0,0,0,0.1,0,0.1H9L11.5,17.7z"/>
		<path class="st3" d="M7.8,26.9c-1.9,0-3.4-1.5-3.4-3.4c0-1.8,1.4-3.3,3.2-3.4l0.8-1.6c-0.2,0-0.4-0.1-0.6-0.1
			c-2.8,0-5.1,2.3-5.1,5.1s2.3,5.1,5.1,5.1c2.2,0,4.1-1.4,4.8-3.4h-1.8C10.2,26.2,9.1,26.9,7.8,26.9z"/>
		<path class="st3" d="M22.1,18.5c-0.2,0-0.5,0-0.7,0.1c0.2,0.5,0.4,1.1,0.7,1.6c0,0,0,0,0,0c1.9,0,3.4,1.5,3.4,3.4
			c0,1.9-1.5,3.4-3.4,3.4c-1.9,0-3.4-1.5-3.4-3.4c0-0.7,0.2-1.3,0.5-1.8c-0.3-0.6-0.5-1.1-0.8-1.7c-0.9,0.9-1.4,2.2-1.4,3.5
			c0,2.8,2.3,5.1,5.1,5.1c2.8,0,5.1-2.3,5.1-5.1S24.9,18.5,22.1,18.5z"/>
	</g>
</g>
</svg>
