<?xml version="1.0" encoding="utf-8"?>
<!-- Generator: Adobe Illustrator 19.2.1, SVG Export Plug-In . SVG Version: 6.00 Build 0)  -->
<svg version="1.0" id="Calque_1" xmlns="http://www.w3.org/2000/svg" xmlns:xlink="http://www.w3.org/1999/xlink" x="0px" y="0px"
	 viewBox="0 0 30 30" style="enable-background:new 0 0 30 30;" xml:space="preserve">
<style type="text/css">
	.st0{display:none;}
	.st1{display:inline;fill:#222221;}
	.st2{display:inline;}
	.st3{fill:#222221;}
</style>
<g id="voiture">
	<path class="st3" d="M24.9,13c0.6,0,1.1-0.5,1.1-1.1s-0.5-1.1-1.1-1.1h-1.6l0,0l-0.5-3.4c-0.1-0.7-0.6-1.3-1.7-1.6
		c-1.3-0.3-2.2-0.7-6-0.8h-0.4l0,0c-2.8,0-5.1,0.5-6.4,0.8C7.5,6,7,6.5,6.9,7.2l-0.5,3.4l0,0H4.8c-0.6,0-1.1,0.5-1.1,1.1
		S4.1,13,4.8,13H5c-0.7,0.7-1.3,1.6-1.3,2.2c0,0.9,0.7,3.9,1,5.1c0.1,0.3,0.3,0.6,0.5,0.9L6,22v1.6c0,0.8,0.6,1.6,1.4,1.8
		c1.1,0.2,2-0.6,2-1.7v-0.6h11v0.6c0,1,0.9,1.8,2,1.7c0.8-0.1,1.4-0.9,1.4-1.8V22l0.8-0.8c0.2-0.2,0.4-0.5,0.5-0.9
		c0.3-1.2,1-4.2,1-5.1c0-0.6-0.7-1.5-1.3-2.2C24.8,13,24.9,13,24.9,13z M7.2,11.4L8,8.2c0.2-0.7,0.6-1.3,1.3-1.5
		c1.3-0.5,3.2-0.5,5.5-0.5s4.2,0,5.5,0.5c0.7,0.2,1.1,0.9,1.3,1.5l0.8,3.2c0.1,0.3-0.1,0.6-0.4,0.6c-1.3,0.3-4.5,0.8-7.2,0.9
		c-2.7,0-5.9-0.6-7.2-0.9C7.3,12,7.2,11.7,7.2,11.4z M8.7,19.1c-1.2,0.6-2.8-0.2-2.9-1.7c-0.2-1.6,0.9-2.1,2.2-1
		C9.6,17.8,10.2,18.4,8.7,19.1z M18.1,21.9h-6.5c-0.6,0-1.1-0.5-1.1-1.1s0.5-1.1,1.1-1.1h6.5c0.6,0,1.1,0.5,1.1,1.1
		S18.7,21.9,18.1,21.9z M23.9,17.4c-0.2,1.5-1.7,2.3-2.9,1.7c-1.5-0.7-0.9-1.3,0.8-2.7C23,15.2,24.1,15.7,23.9,17.4z"/>
</g>
</svg>
