<?xml version="1.0" encoding="utf-8"?>
<!-- Generator: Adobe Illustrator 19.2.1, SVG Export Plug-In . SVG Version: 6.00 Build 0)  -->
<svg version="1.0" id="décollage" xmlns="http://www.w3.org/2000/svg" xmlns:xlink="http://www.w3.org/1999/xlink" x="0px" y="0px"
	 viewBox="0 0 90 90" style="enable-background:new 0 0 90 90;" xml:space="preserve">
<style type="text/css">
	.st0{fill:#373737;}
</style>
<g>
	<rect x="0" y="86.3" class="st0" width="90" height="3.7"/>
	<path class="st0" d="M11.2,48.8l-6.3,3.4c4.5,2.6,11.6,5.6,21.2,1.2c11.1-5.1,65-29.1,63.5-32.5c-1.5-3.4-9.7-7.4-19.8-2.9
		c0,0-7.3,3.7-16.1,8.2L17.8,15.8c-2.4-0.7-5.5-0.7-7,0L8,17.1c-0.8,0.4-0.7,1.3,1.6,2.5l26.6,15.6C28.8,39,23,41.9,22.4,42.2
		c-1.6,0.7-7.7-0.8-9.2-1.9c-2.5-1.9-6.2-4.6-7.3-5.4c-1.8-1.4-6.4-0.5-5.1,2.3C2.1,39.9,11.2,48.8,11.2,48.8z"/>
</g>
</svg>
