<?xml version="1.0" encoding="utf-8"?>
<!-- Generator: Adobe Illustrator 19.2.1, SVG Export Plug-In . SVG Version: 6.00 Build 0)  -->
<svg version="1.0" id="atterrissage" xmlns="http://www.w3.org/2000/svg" xmlns:xlink="http://www.w3.org/1999/xlink" x="0px"
	 y="0px" viewBox="0 0 90 90" style="enable-background:new 0 0 90 90;" xml:space="preserve">
<style type="text/css">
	.st0{fill:#373737;}
</style>
<g>
	<rect x="0.2" y="86.3" class="st0" width="89.8" height="3.7"/>
	<path class="st0" d="M17.1,38.8c11.6,3.9,67.3,23.5,68.5,20.1c1.2-3.5-2-12-12.5-15.7c0,0-7.8-2.3-17.4-5.1L36.9,5.7
		c-1.3-2.2-3.5-4.3-5.1-4.8l-3-1c-0.9-0.3-1.4,0.5-0.5,3l8.6,29.6c-8-2.3-14.2-4.2-14.8-4.4c-1.6-0.6-5-5.9-5.3-7.7
		c-0.6-3.1-1.4-7.6-1.6-9c-0.4-2.3-4.3-4.7-5.3-1.9c-1,2.9-0.5,15.7-0.5,15.7l-6.9-1.9C3.9,28.3,7,35.4,17.1,38.8z"/>
</g>
</svg>
