<?xml version="1.0" encoding="utf-8"?>
<!-- Generator: Adobe Illustrator 19.2.1, SVG Export Plug-In . SVG Version: 6.00 Build 0)  -->
<svg version="1.0" id="Calque_1" xmlns="http://www.w3.org/2000/svg" xmlns:xlink="http://www.w3.org/1999/xlink" x="0px" y="0px"
	 viewBox="0 0 30 30" style="enable-background:new 0 0 30 30;" xml:space="preserve">
<style type="text/css">
	.st0{display:none;}
	.st1{display:inline;fill:#222221;}
	.st2{fill:#222221;}
	.st3{display:inline;}
</style>
<path class="st2" d="M28.6,7.3c-0.1-0.5-0.5-0.9-1-0.9h-2.3V4.2c0-0.2,0-0.3,0-0.4c0-0.1-0.1-0.3-0.1-0.4c0,0,0,0,0,0
	c0-0.1-0.1-0.2-0.2-0.3c0,0,0,0,0-0.1c-0.1-0.1-0.1-0.2-0.2-0.2c0,0-0.1-0.1-0.1-0.1c0,0-0.1-0.1-0.1-0.1c-0.1-0.1-0.1-0.1-0.2-0.2
	c0,0,0,0-0.1,0c-0.1-0.1-0.2-0.1-0.3-0.2c0,0,0,0,0,0c-0.1,0-0.3-0.1-0.4-0.1c-0.1,0-0.3,0-0.4,0H6.9c-0.2,0-0.3,0-0.4,0
	C6.3,2,6.2,2,6.1,2.1c0,0,0,0,0,0c-0.1,0-0.2,0.1-0.3,0.2c0,0,0,0-0.1,0C5.6,2.3,5.5,2.4,5.4,2.5c0,0-0.1,0.1-0.1,0.1
	c0,0-0.1,0.1-0.1,0.1C5.1,2.8,5,2.9,5,2.9C5,3,5,3,5,3C4.9,3.1,4.8,3.2,4.8,3.3c0,0,0,0,0,0c0,0.1-0.1,0.3-0.1,0.4
	c0,0.1,0,0.3,0,0.4v2.2H2.3c-0.5,0-0.9,0.4-1,0.9c0,0.1-0.1,3.7-0.1,3.7c0,0.6,0.5,1.1,1.1,1.1c0.6,0,1.1-0.5,1.1-1.1V7.6h1.1v15.8
	c0,0.6,0.2,1.2,0.7,1.6c0.1,0.1,0.3,0.3,0.4,0.3v1.4C5.6,28,6.7,29,7.9,29c0,0,0,0,0,0c0,0,0,0,0.1,0c1.2,0,2.3-1,2.3-2.3v-1.1h9.3
	v1.1c0,1.3,1.1,2.3,2.3,2.3c0,0,0,0,0.1,0c0,0,0,0,0,0c1.2,0,2.3-1,2.3-2.3v-1.4c0.2-0.1,0.3-0.2,0.4-0.3c0.4-0.4,0.7-1,0.7-1.6V7.6
	h1.1V11c0,0.6,0.5,1.1,1.1,1.1c0.6,0,1.1-0.5,1.1-1.1C28.7,11,28.7,7.4,28.6,7.3z M10.3,24.5H8c-0.6,0-1.1-0.5-1.1-1.1
	c0-0.6,0.5-1.1,1.1-1.1h2.3c0.6,0,1.1,0.5,1.1,1.1C11.4,24,10.9,24.5,10.3,24.5z M14.2,19.9C9,19.8,7,19,7,19
	c-1.1-0.2-1.2-1.3-1.2-1.3V5.3c0-0.6,0.5-1.1,1.1-1.1H23c0.6,0,1.1,0.5,1.1,1.1v12.4c0,0-0.2,1.1-1.2,1.3c0,0-2,0.8-7.2,0.9
	C15.4,19.9,14.6,19.9,14.2,19.9z M18.5,23.4c0-0.6,0.5-1.1,1.1-1.1h2.3c0.6,0,1.1,0.5,1.1,1.1c0,0.6-0.5,1.1-1.1,1.1h-2.3
	C19,24.5,18.5,24,18.5,23.4z"/>
</svg>
