<!-- Generated by IcoMoon.io -->
<svg version="1.1" xmlns="http://www.w3.org/2000/svg" width="1024" height="1024" viewBox="0 0 1024 1024">
<g id="icomoon-ignore">
</g>
<path d="M841.39 892.814v-463.836c0-27.942-26.328-50.664-58.754-50.664h-534.346c-32.426 0-58.748 22.722-58.748 50.664v463.836c0 28.014 26.324 50.664 58.748 50.664h534.352c32.424 0 58.754-22.648 58.754-50.664h-0.006zM777.704 937.448h-524.476c-31.828 0-57.664-22.168-57.664-49.574v-453.952c0-27.346 25.836-49.586 57.664-49.586h524.476c31.822 0 57.658 22.24 57.658 49.586v453.944h0.012c0.006 27.418-25.842 49.58-57.668 49.58zM417.34 286.366l55.592-60.556v-40.442l-45.442 45.442v-105.954h-30.298v105.954l-45.442-45.442v45.442l55.52 55.556zM609.19 286.366h30.286v-105.996l45.448 45.442v-45.442l-55.592-55.514h-10.072l-55.524 60.512v40.442l45.454-45.442zM392.12 534.86c-10.072 0-105.96 0-116.104 0-10.072 0-25.222 10.12-25.222 25.226 0 15.114 0 141.33 0 141.33h30.292v-100.99h15.15v262.542h30.286v-141.336h15.072v141.336h30.37v-262.542h15.15v100.99h25.222c0 0 0-121.182 0-136.252 0-15.184-10.064-30.304-20.214-30.304zM334.028 519.71c19.558 0 35.37-15.806 35.37-35.328 0-19.486-15.812-35.328-35.37-35.328-19.486 0-35.292 15.848-35.292 35.328 0 19.516 15.806 35.328 35.292 35.328zM578.89 534.86c-10.082 0-105.96 0-116.11 0-10.072 0-25.222 10.12-25.222 25.226 0 15.114 0 141.33 0 141.33h30.292v-100.99h15.15v262.542h30.22v-141.336h15.15v141.336h30.292v-262.542h15.15v100.99h25.288c0 0 0-121.182 0-136.252 0-15.184-10.15-30.304-20.208-30.304zM520.8 519.71c19.558 0 35.364-15.806 35.364-35.328 0-19.486-15.806-35.328-35.364-35.328-19.486 0-35.292 15.848-35.292 35.328 0 19.516 15.806 35.328 35.292 35.328zM760.658 534.86c-10.156 0-106.038 0-116.104 0-10.144 0-25.294 10.12-25.294 25.226 0 15.114 0 141.33 0 141.33h30.286v-100.99h15.15v262.542h30.292v-141.336h15.154v141.336h30.286v-262.542h15.15v100.99h25.226c0 0 0-121.182 0-136.252-0.006-15.184-10.076-30.304-20.15-30.304zM702.578 519.71c19.468 0 35.28-15.806 35.28-35.328 0-19.486-15.812-35.328-35.28-35.328-19.492 0-35.304 15.848-35.292 35.328-0.006 19.516 15.794 35.328 35.292 35.328z"></path>
</svg>
