<!-- Generated by IcoMoon.io -->
<svg version="1.1" xmlns="http://www.w3.org/2000/svg" width="1024" height="1024" viewBox="0 0 1024 1024">
<g id="icomoon-ignore">
</g>
<path d="M401.59 227.83c57.49 0 104.128-46.66 104.128-104.17 0-57.426-46.638-104.086-104.128-104.086s-104.106 46.66-104.106 104.086c0 57.51 46.618 104.17 104.106 104.17zM871.586 259.296h-158.844c-11.102 0-21.618 4.758-28.922 13.022l-366.366 414.592c-27.942 0.668-86.83 1.836-144.026 1.836-113.852 0-173.428 81.464-173.428 161.93 0 40.398 14.69 78.042 41.36 106.006 20.7 21.702 58.344 47.744 120.070 47.744h185.76c11.018 0 21.536-4.84 28.88-13.020l377.99-428.030h105.546c63.144 0 101.542-26.208 122.574-48.16 26.962-28.132 41.82-65.776 41.82-106.092 0-74.454-52.336-149.828-152.414-149.828zM926.592 461.876c-15.318 15.942-38.478 24.374-66.984 24.374h-122.908c-11.102 0-21.578 4.758-28.88 13.020l-378.012 428.030h-168.378c-27.252 0-49.476-8.18-64.272-23.706-12.98-13.69-20.116-32.384-20.116-52.92 0-42.234 29.798-84.804 96.386-84.804 79.526 0 162.014-2.336 162.848-2.336 10.664-0.336 20.742-5.008 27.794-13.022l366.034-414.174h141.48c52.084 0 75.372 36.56 75.372 72.786 0.002 20.366-7.26 39.064-20.364 52.752zM328.91 390.594c0 32.72 0 212.18 0 212.18l122.386-138.726c0 0 0-40.732 0-114.186s-122.386-77.46-122.386 40.732z"></path>
</svg>
