<!-- Generated by IcoMoon.io -->
<svg version="1.1" xmlns="http://www.w3.org/2000/svg" width="1024" height="1024" viewBox="0 0 1024 1024">
<g id="icomoon-ignore">
</g>
<path d="M335 552.812l-335 300.52v170.668l170.666-0.25 342.71-365.042zM853.332 0l-128 128c0 0 134.71 83.604 134.71 178.354l163.958-135.688v-170.666h-170.668zM581.918 525.542l-18.086 12.332 47.75 66.292 17.168-11.836c49.832-34.29 79.542-90.79 79.542-151.144 0-101.188-82.336-183.52-183.542-183.52-84.5 0-157.688 57.312-178 139.396l-4.876 19.708 78.52 23.646 5.146-22.188c10.75-46.5 51.562-78.958 99.208-78.958 56.208 0 101.918 45.73 101.918 101.916 0.002 33.752-16.708 65.272-44.748 84.356zM522.458 135.312c-148.416 0-271.062 108.792-293.5 250.896l48.98 11.334c17.23-119.688 120.146-212.062 244.52-212.062 136.376 0 247.292 110.958 247.292 247.334 0 98.23-45.626 188.062-128.832 227.938-2.71 2.25-45.918 16.042-103.626 139.5l-6.274 19.332c-27.124 84.042-27.102 84-158.582 76.336l-2.936 50.080c26.542 1.542 49.104 2.5 68.438 2.5 93.042 0 111.52-22.708 140.812-113.5l6.208-19.082c52.46-109.918 83.792-112.668 84.292-113.086 96.5-49.208 150.668-154.29 150.668-270.020 0-164.312-133.168-297.5-297.46-297.5z"></path>
</svg>
