<!-- Generated by IcoMoon.io -->
<svg version="1.1" xmlns="http://www.w3.org/2000/svg" width="1024" height="1024" viewBox="0 0 1024 1024">
<g id="icomoon-ignore">
</g>
<path d="M1024 448h-106.104c-25.966-183.334-173.188-327.642-357.896-349.188v-98.812h-96v98.812c-184.722 21.544-331.932 165.852-357.896 349.188h-106.104v102.394h104.4c20.436 189.75 170.332 340.716 359.6 362.792v110.814h96v-110.812c189.254-22.078 339.162-173.042 359.6-362.792h104.4v-102.396zM820.608 448h-260.608v-252.334c131.422 20.25 236.218 122.304 260.608 252.334zM464 195.666v252.334h-260.608c24.39-130.030 129.186-232.084 260.608-252.334zM201.154 550.394h262.846v265.94c-135.972-20.952-243.442-129.47-262.846-265.94zM560 816.334v-265.94h262.846c-19.404 136.47-126.874 244.988-262.846 265.94z"></path>
</svg>
