<!-- Generated by IcoMoon.io -->
<svg version="1.1" xmlns="http://www.w3.org/2000/svg" width="1024" height="1024" viewBox="0 0 1024 1024">
<g id="icomoon-ignore">
</g>
<path d="M787.692 118.15l-275.692-118.15-236.308 118.15-275.692-118.15v905.852l275.692 118.148 236.308-118.188 235.27 100.844c0-0.006 0-0.012 0-0.020l40.422 17.324 236.308-118.148v-905.812l-236.308 118.15zM945.154 645.77l-118.846-97.29-113.98-98.708 232.826-129.458v325.456zM244.616 190.532l33.578 14.422 236.306-118.15 275.692 118.15 154.964-77.496v147.786l-264.522 147.082-148.324-128.45-246.31 16.458-207.308-98.334v-92.542l165.924 71.074zM785.116 937.12l-47.196-20.22c-32.998-183.632-140.734-216.5-225.92-216.5-21.384 0-38.154 24.844-78.77 1.96-68.654-38.652-46.654-144.766-157.538-150.958-65.682-65.678-148.876-78.778-197-80.222v-128.424l184.462 87.5 228.5-15.23 258.616 223.8 194.884 159.628v58.63l-160.038 80.036z"></path>
</svg>
