<!-- Generated by IcoMoon.io -->
<svg version="1.1" xmlns="http://www.w3.org/2000/svg" width="1024" height="1024" viewBox="0 0 1024 1024">
<g id="icomoon-ignore">
</g>
<path d="M581.898 519.714c-35.376-47.142-60.59-102.638-69.946-160.99-5.136-31.968-6.074-64.874-10.336-97.012-3.858-29.006-8.844-57.862-15.366-86.378-10.634-46.376-24.296-92.132-39.044-137.356-0.468-1.514-6.84-24.85-8.696-24.85h-424.534v880.274c0 0 1.28 1.62 3.794 4.434 57.244 65.684 136.44 114.872 223.99 123.268 37.424 3.624 74.678 3.666 112.016 1.108 31.35-2.044 57.606 1.792 73.186-29.58 11.36-22.804 11.104-28.174 10.166-53.112-1.066-32.392-7.224-47.098 17.646-70.84 0 0 24.104-32.394-10.188-43.476 0 0-125.080 4.092-162.738-131.198 0 0 109.096 72.888 209.796 60.698 0 0 26.874 4.434 21.482-104.090 153.936-20.672 68.772-130.9 68.772-130.9zM355.65 350.542l-87.294 4.092 12.958-77.746c0 0 89.894 3.452 105.452 46.162 0-0.002 10.934 29.494-31.116 27.492zM673.542 1016.628h-188.014v-48.848h180.812c231.576-71.696 223.564-396.79 223.478-400.028l-0.852-26.128 26.086 0.874c14.918 0.512 33.928-1.212 41.43-12.232 10.316-15.368 1.194-48.314-4.86-61.87-29.922-73.548-1.536-159.798 6.136-180.364 0.086-13.448-2.556-23.082-7.204-26.128-9.59-6.138-33.97 1.45-44.286 6.67l-35.976 18.286 0.512-40.366c2.558-193.96-5.286-225.502-5.626-226.782 0 0.106 0.426 1.662 1.62 3.792l42.796-23.504c7.928 14.492 11.464 86.080 10.444 212.95 17.774-3.432 39.17-3.56 56.988 7.928 21.056 13.598 30.946 38.192 29.41 73.122l-0.17 4.262-1.664 3.942c-0.296 0.81-33.714 84.098-8.14 146.968 2.728 5.904 28.73 66.238 0.598 108.18-12.362 18.498-32.012 29.494-58.566 32.904-1.024 33.59-5.966 98.078-26.894 167.856-40.452 134.948-121.564 224.032-234.646 257.536l-3.412 0.98zM605.598 327.204c0 0 90.236-138.7 180.472 0h-180.472zM723.922 726.484c-9.546-9.546-24.976-9.546-34.524 0-32.14 32.224-106.218 28.046-147.8 21.312v49.488c15.324 2.258 35.102 4.304 56.584 4.304 43.476 0 93.604-8.398 125.74-40.578 9.548-9.548 9.548-24.976 0-34.526z"></path>
</svg>
