<!-- Generated by IcoMoon.io -->
<svg version="1.1" xmlns="http://www.w3.org/2000/svg" width="1024" height="1024" viewBox="0 0 1024 1024">
<title></title>
<g id="icomoon-ignore">
</g>
<path d="M957.562 623c0-23.79-28.234-60.274-54.554-89.122h54.552v-89.098h-105.98l-27.702-178.22c0 0-133.636-44.56-311.876-44.56-178.22 0-311.878 44.56-311.878 44.56l-27.72 178.22h-105.964v89.098h54.54c-26.314 28.848-54.54 65.332-54.54 89.122 0 44.558 44.56 222.758 44.56 222.758l44.56 44.562v66.862c0 36.892 29.928 66.818 66.818 66.818 36.914 0 66.84-29.926 66.84-66.818v-22.3h445.54v22.3c0 36.892 29.97 66.818 66.864 66.818s66.818-29.926 66.818-66.818v-66.862l44.562-44.562c0 0 44.56-178.2 44.56-222.758zM823.878 489.33c0 0-21.008 5.252-54.006 12.148-14.24-16.718-42.834-30.438-73.494-36.332 0 0-16.57-3.732-8.656-20.22 9.608-13.004 15.542-27.716 15.958-32.502 0 0 14.878-11.748 15.746-29.33 0.948-17.518-3.256-18.322-3.256-18.322 6.306-19.148 8.322-90.936-37.802-82.362-2.456-4.826-9.080-9.308-17.674-11.868 52.882 4.918 93.964 15.918 118.626 40.58l44.558 178.208zM638.158 268.83c-13.94 1.888-28.402 9.514-38.076 26.812-11.208 19.994-15.37 47.324-6.63 69.624-0.288 1.648-3.048-1.588-4.080 8.656-0.906 9.954 3.46 24.196 8.324 30.792 2.104 2.782 5.61 4.802 7.92 5.852 0 0 2.922 17.686 16.65 34.358 3.256 13.254-9.894 20.22-9.894 20.22-43.444 8.366-83.468 32.502-83.468 58.616 0 0.914 0 5.38 0 9.888-5.7 0.146-11.342 0.23-16.902 0.23-5.554 0-11.19-0.072-16.876-0.202 0-4.518 0-9.002 0-9.916 0-26.114-39.43-50.248-82.938-58.616 0 0-16.57-3.732-8.656-20.22 9.562-13.004 15.542-27.716 15.932-32.502 0 0 14.88-11.748 15.746-29.33 0.95-17.518-3.256-18.322-3.256-18.322 6.306-19.148 8.346-90.936-37.78-82.362-2.768-5.408-10.758-10.38-20.888-12.7 40.562-3.138 87.462-3.148 138.716-3.148 46.15 0.002 88.65 0.008 126.156 2.27zM244.66 311.122c20.642-20.644 52.92-31.712 93.942-37.66-8.588 4.204-16.608 11.254-22.71 22.18-11.21 19.994-15.394 47.324-6.656 69.624-0.31 1.648-3.050-1.588-4.080 8.656-0.932 9.954 3.48 24.196 8.346 30.792 2.082 2.782 5.566 4.802 7.874 5.852 0 0 2.968 17.686 16.674 34.358 3.256 13.254-9.872 20.22-9.872 20.22-32.752 6.302-63.554 21.562-76.754 39.872-30.636-5.658-49.922-9.882-49.922-9.882l43.158-184.012zM243.526 801.242c-48.558 0-87.964-39.41-87.964-88.010s175.954-48.6 175.954 0-39.432 88.010-87.99 88.010zM645.682 890.318h-267.342c-24.63 0-44.56-19.908-44.56-44.56 0-24.608 19.93-44.516 44.56-44.516h267.34c24.608 0 44.558 19.908 44.558 44.516 0.002 24.652-19.948 44.56-44.556 44.56zM690.242 713.232c0-48.6 175.932-48.6 175.932 0s-39.408 88.010-87.966 88.010-87.966-39.41-87.966-88.010z"></path>
</svg>
