<!-- Generated by IcoMoon.io -->
<svg version="1.1" xmlns="http://www.w3.org/2000/svg" width="1024" height="1024" viewBox="0 0 1024 1024">
<g id="icomoon-ignore">
</g>
<path d="M940.55 481.462c-7.198-14.288-379.592-389.174-401.12-401.076-21.456-11.938-69.216-9.552-83.546 0-14.324 9.504-401.072 386.784-403.456 405.806-2.384 19.15 0 33.474 14.366 45.416 14.33 11.932 33.43 11.932 50.11 9.552 1.88-0.27 8.108-5.222 17.644-13.758v352.22c0 34.816 28.214 63.066 63.102 63.066h619.856c34.816 0 63.060-28.256 63.060-63.066h0.048v-337.638c14.264 4.662 33.388-0.188 45.61-10.374 14.324-11.946 21.486-35.822 14.324-50.152zM714.818 403.866c21.486 0 38.9 17.402 38.9 38.858 0 21.492-17.414 38.9-38.9 38.9s-38.9-17.402-38.9-38.9c0-21.456 17.414-38.858 38.9-38.858zM514.706 403.822c21.492 0 38.9 17.444 38.9 38.9 0 21.534-17.408 38.936-38.9 38.936s-38.9-17.408-38.9-38.936c0-21.456 17.408-38.9 38.9-38.9zM309.084 403.866c21.492 0 38.9 17.402 38.9 38.858 0 21.492-17.408 38.9-38.9 38.9s-38.9-17.402-38.9-38.9c0-21.456 17.408-38.858 38.9-38.858zM395.264 681.688h-27.768v-111.146h-16.678v289.038h-33.388v-155.63h-16.638v155.63h-33.352v-289.038h-16.68v111.152h-33.352c0 0 0-138.92 0-155.594 0-16.638 16.68-27.768 27.768-27.768 11.168 0 116.73 0 127.826 0 11.168 0 22.262 16.678 22.262 33.352 0 16.596 0 150.004 0 150.004zM600.876 681.688h-27.756v-111.146h-16.684v289.038h-33.352v-155.63h-16.686v155.63h-33.346v-289.038h-16.678v111.152h-33.346c0 0 0-138.92 0-155.594 0-16.638 16.678-27.768 27.81-27.768s116.694 0 127.784 0c11.168 0 22.25 16.678 22.25 33.352 0.006 16.596 0.006 150.004 0.006 150.004zM800.956 681.688h-27.812v-111.146h-16.684v289.038h-33.346v-155.63h-16.678v155.63h-33.352v-289.038h-16.65v111.152h-33.34c0 0 0-138.92 0-155.594 0-16.638 16.644-27.768 27.812-27.768 11.082 0 116.646 0 127.826 0 11.090 0 22.222 16.678 22.222 33.352 0.006 16.596 0.006 150.004 0.006 150.004z"></path>
</svg>
