<?xml version="1.0" encoding="utf-8"?>
<!-- Generator: Adobe Illustrator 19.2.1, SVG Export Plug-In . SVG Version: 6.00 Build 0)  -->
<svg version="1.0" id="Calque_1" xmlns="http://www.w3.org/2000/svg" xmlns:xlink="http://www.w3.org/1999/xlink" x="0px" y="0px"
	 viewBox="0 0 30 30" style="enable-background:new 0 0 30 30;" xml:space="preserve">
<style type="text/css">
	.st0{display:none;}
	.st1{display:inline;fill:#222221;}
	.st2{display:inline;}
	.st3{fill:#222221;}
</style>
<g id="navette">
	<path class="st3" d="M25.1,10.4L25.1,10.4c0-0.1,0-5.6-2.3-5.6H7.1c-2.3,0-2.3,5.5-2.3,5.5v0.1c-0.6,0-1.1,0.5-1.1,1.1v1.1
		c0,0.6,0.5,1.1,1.1,1.1v6.8c0,1.8,1.6,2.7,2.3,3.1V25c0,0.6,0.5,1.1,1.1,1.1s1.1-0.5,1.1-1.1v-1.3l2.3,0.2h6.6l2.3-0.2V25
		c0,0.6,0.5,1.1,1.1,1.1s1.1-0.5,1.1-1.1v-1.4c0.7-0.4,2.2-1.2,2.3-3.1v-6.8c0.6,0,1.1-0.5,1.1-1.1v-1.1
		C26.2,10.9,25.7,10.4,25.1,10.4z M8.8,21.7c-0.9,0-1.7-0.8-1.7-1.7s0.8-1.7,1.7-1.7s1.7,0.8,1.7,1.7S9.8,21.7,8.8,21.7z M18.3,20.5
		h-6.6v-1.1h6.6V20.5z M21.1,21.7c-0.9,0-1.7-0.8-1.7-1.7s0.8-1.7,1.7-1.7c0.9,0,1.7,0.8,1.7,1.7S22,21.7,21.1,21.7z M23.9,12.3
		c0,0.8-0.7,1.5-1.5,1.5h-15c-0.8,0-1.5-0.7-1.5-1.5V7.6C6,7.3,6.3,7,6.6,7h16.8C23.7,7,24,7.3,24,7.6L23.9,12.3z"/>
</g>
</svg>
