<?xml version="1.0" encoding="utf-8"?>
<!-- Generator: Adobe Illustrator 19.2.1, SVG Export Plug-In . SVG Version: 6.00 Build 0)  -->
<svg version="1.0" id="Calque_1" xmlns="http://www.w3.org/2000/svg" xmlns:xlink="http://www.w3.org/1999/xlink" x="0px" y="0px"
	 viewBox="0 0 30 30" style="enable-background:new 0 0 30 30;" xml:space="preserve">
<style type="text/css">
	.st0{display:none;}
	.st1{display:inline;fill:#222221;}
	.st2{display:inline;}
	.st3{fill:#222221;}
</style>
<g id="tram">
	<g>
		<polygon class="st3" points="7,29 9.3,29 12.7,25.6 10.4,25.6 		"/>
		<polygon class="st3" points="19.5,25.6 17.3,25.6 20.6,29 22.9,29 		"/>
		<path class="st3" d="M9.1,23c0.1,0.1,0.1,0.1,0.2,0.2l0,0c0.6,0.6,1.5,1.3,2.8,1.3h5.7c1.3,0,2.8-1.2,3-1.5c0.3-0.3,0.5-0.7,0.6-1
			c0.5-1.3,1.1-3.3,1.1-5.9c0-4.7-0.9-8.5-0.9-8.5c-0.3-1.4-1.8-1.9-2.8-1.9h-1.9l1.9-2.8h1.4c0.3,0,0.5-0.2,0.5-0.5
			s-0.2-0.5-0.5-0.5H9.8c-0.3,0-0.5,0.2-0.5,0.5s0.2,0.5,0.5,0.5h1.4L13,5.7h-1.9c-1,0-2.5,0.4-2.8,1.9c0,0-0.9,3.8-0.9,8.5
			c0,2.6,0.6,4.6,1.1,5.9C8.6,22.3,8.8,22.6,9.1,23z M12.5,21.6c-0.7,0.7-1.9,0.7-2.7,0c-0.7-0.7-0.7-1.9,0-2.7
			C10.6,18.2,13.2,20.9,12.5,21.6z M20.1,21.6c-0.7,0.7-1.9,0.7-2.7,0c-0.7-0.7,1.9-3.4,2.7-2.7C20.8,19.7,20.8,20.9,20.1,21.6z
			 M12.1,2.9h5.7l-1.9,2.8h-2L12.1,2.9z M9.2,9c0-0.3,0.3-0.5,0.6-0.5h10.4c0.3,0,0.5,0.2,0.6,0.5c0.2,1.2,0.6,4.2,0.6,5.5
			c0,1.6-2.2,3.4-6.3,3.4H15c-4.1,0-6.3-1.9-6.3-3.4C8.6,13.2,9,10.2,9.2,9z"/>
	</g>
</g>
</svg>
