<svg id="Calque_1" data-name="Calque 1" xmlns="http://www.w3.org/2000/svg" viewBox="0 0 24 24"><defs><style>.cls-1{fill:#373737;}.cls-2{fill:#fff;stroke:#fff;stroke-miterlimit:10;stroke-width:0.5px;}</style></defs><title>picto_what</title><path class="cls-1" d="M12,0A12,12,0,1,0,24,12,12,12,0,0,0,12,0Z"/><path class="cls-2" d="M10.92,13.36V12.61a3.19,3.19,0,0,1,.29-1.43,3.33,3.33,0,0,1,1-1.14,4.07,4.07,0,0,0,.84-0.8,1.35,1.35,0,0,0,.26-0.81,0.69,0.69,0,0,0-.28-0.57,1.14,1.14,0,0,0-.72-0.21,5,5,0,0,0-2.56.92l-1-2.35A6.6,6.6,0,0,1,12.55,5a3.6,3.6,0,0,1,2.54.85A3,3,0,0,1,16,8.15,3.79,3.79,0,0,1,15.59,10a4.59,4.59,0,0,1-1.31,1.45,5.29,5.29,0,0,0-1,.86,1.09,1.09,0,0,0-.19.64v0.44H10.92Zm-0.31,4A1.78,1.78,0,0,1,11,16.12a1.45,1.45,0,0,1,1.14-.43,1.41,1.41,0,0,1,1.11.44,1.78,1.78,0,0,1,.39,1.22,1.72,1.72,0,0,1-.4,1.22,1.43,1.43,0,0,1-1.1.43A1.47,1.47,0,0,1,11,18.57,1.71,1.71,0,0,1,10.61,17.35Z"/></svg>