<!-- Generated by IcoMoon.io -->
<svg version="1.1" xmlns="http://www.w3.org/2000/svg" width="1024" height="1024" viewBox="0 0 1024 1024">
<g id="icomoon-ignore">
</g>
<path d="M1021.074 507.986c-62.84-166.778-272.182-283.218-509.074-283.218-3.014 0-6.020 0.032-9.024 0.070l-31.364-134.154-42.772 9.994 29.488 126.102c-214.338 16.050-397.392 127.146-455.402 281.206l-2.136 5.644h-0.166l0.064 0.276-0.688 1.814 1.12-0.010c15.544 41.972 40.046 81.154 71.876 116.312l-26.902-116.67 1.126-0.010c0.238 0.554 0.488 1.12 0.022 0 12.696-30.676 31.138-59.362 54.322-85.55l19.144 83.838h-0.344l35.354 153.332 8.884 38.908 0.084-0.020 0.962 4.176c16.452 10.648 33.784 20.55 51.908 29.64l-14.020-60.808-65.168-285.214c23-19.734 49-37.536 77.418-53.118l40.332 173.106h-0.398l62.214 265.454c15.64 4.612 31.65 8.674 47.976 12.174l-28.070-119.802 0.148-0.036-81.74-350.84c26.154-11.55 53.892-21.372 82.884-29.25l32.394 139.396c-15.352 25.030-24.214 54.472-24.214 85.998 0 58.432 30.46 109.746 76.352 138.992l27.982 119.766 5.792 24.92 0.030-0.008 0.966 4.134c15.024 1.128 30.234 1.788 45.602 1.958l-21.1-90.28-9.116-39.252c12.258 2.912 25.030 4.498 38.178 4.498 17.722 0 34.778-2.836 50.774-8.024l19.982 85.452c-0.186 0.018-0.372 0.030-0.556 0.046l9.992 43.19c0.218-0.026 0.438-0.052 0.656-0.078l30.7 131.278 42.73-9.994-29.842-127.64c183.014-32.59 333.090-135.432 384.638-272.224l2.928-7.74-2.926-7.734zM976.712 515.344c-1.462 3.512-3.010 6.984-4.6 10.454-2.046 4.432-4.054 8.864-6.312 13.21-2.382 4.602-5.102 9.032-7.778 13.546-2.464 4.182-4.89 8.404-7.61 12.46-2.926 4.472-6.144 8.738-9.322 13.086-2.884 3.93-5.728 7.902-8.822 11.79-3.428 4.222-7.192 8.364-10.872 12.46-3.262 3.678-6.522 7.442-9.95 11.038-3.93 4.014-8.152 7.9-12.292 11.874-3.68 3.43-7.192 6.898-11.038 10.244-4.39 3.804-9.072 7.482-13.672 11.162-3.97 3.178-7.862 6.44-11.998 9.45-4.808 3.636-9.954 7.024-14.968 10.454-4.266 2.926-8.446 5.852-12.836 8.696-5.226 3.304-10.746 6.398-16.222 9.574-4.556 2.634-8.988 5.352-13.628 7.862-5.644 3.052-11.54 5.81-17.352 8.698-4.808 2.34-9.45 4.806-14.34 7.024-6.062 2.716-12.292 5.226-18.524 7.734-4.488 1.886-8.892 3.792-13.424 5.592 49.57-51.526 80.068-121.512 80.068-198.67 0-89.792-41.234-169.928-105.784-222.556 123.926 40.784 221.168 117.912 261.276 214.818zM488.030 353.792c-30.476 4.442-58.246 17.206-80.908 35.94l-25.178-108.422c28.006-5.55 56.936-9.348 86.508-11.238l19.578 83.72zM676.646 516.724c0-83.84-62.618-152.968-143.608-163.304l-16.98-72.626c5.982-0.508 12.014-0.836 18.142-0.836 133.998 0 243.080 109.082 243.080 243.122 0 101.822-63 188.936-151.966 225.038l-22.046-94.3c44.232-29.544 73.378-79.924 73.378-137.094z"></path>
</svg>
