<?xml version="1.0" encoding="utf-8"?>
<!-- Generator: Adobe Illustrator 19.2.1, SVG Export Plug-In . SVG Version: 6.00 Build 0)  -->
<svg version="1.0" id="Calque_1" xmlns="http://www.w3.org/2000/svg" xmlns:xlink="http://www.w3.org/1999/xlink" x="0px" y="0px"
	 viewBox="0 0 30.8 51.3" style="enable-background:new 0 0 30.8 51.3;" xml:space="preserve">
<style type="text/css">
	.st0{fill:#222221;}
</style>
<g>
	<path class="st0" d="M25.8,14.3H5c-2.8,0-5,2.2-5,5v27c0,2.8,2.2,5,5,5h20.8c2.8,0,5-2.2,5-5v-27C30.8,16.6,28.6,14.3,25.8,14.3z
		 M8.6,44.6c0,1-0.8,1.9-1.9,1.9c-1,0-1.9-0.8-1.9-1.9V21.1c0-1,0.8-1.9,1.9-1.9c1,0,1.9,0.8,1.9,1.9V44.6z M17.3,44.6
		c0,1-0.8,1.9-1.9,1.9c-1,0-1.9-0.8-1.9-1.9V21.1c0-1,0.8-1.9,1.9-1.9c1,0,1.9,0.8,1.9,1.9V44.6z M25.9,44.6c0,1-0.8,1.9-1.9,1.9
		c-1,0-1.9-0.8-1.9-1.9V21.1c0-1,0.8-1.9,1.9-1.9c1,0,1.9,0.8,1.9,1.9V44.6z"/>
	<path class="st0" d="M25.9,4.9h-3.1c0-0.1,0-0.1,0-0.2v-1c0-2-1.6-3.7-3.7-3.7h-7.3c-2,0-3.7,1.6-3.7,3.7v1.1c0,0.1,0,0.1,0,0.2H5
		C2.3,5,0,7.2,0,9.9h30.8C30.8,7.1,28.6,4.9,25.9,4.9z M19.3,4.9h-7.7V3.7c0-0.1,0.1-0.2,0.2-0.2h7.3c0.1,0,0.2,0.1,0.2,0.2V4.9z"/>
</g>
</svg>
