<?xml version="1.0" encoding="utf-8"?>
<!-- Generator: Adobe Illustrator 19.2.1, SVG Export Plug-In . SVG Version: 6.00 Build 0)  -->
<svg version="1.0" id="Calque_1" xmlns="http://www.w3.org/2000/svg" xmlns:xlink="http://www.w3.org/1999/xlink" x="0px" y="0px"
	 viewBox="0 0 358 82" style="enable-background:new 0 0 358 82;" xml:space="preserve">
<style type="text/css">
	.st0{fill:#F5F5F5;}
	.st1{fill:#556671;}
	.st2{fill:#FFFFFF;}
	.st3{opacity:0.5;fill:#3D4C54;}
	.st4{fill:#56B5DB;}
	.st5{opacity:0.3;fill:#FFFFFF;}
	.st6{opacity:0.5;fill:#FFFFFF;}
</style>
<rect x="2.9" y="11" class="st0" width="61.3" height="62.3"/>
<polygon class="st1" points="24.7,59.9 24.9,61.5 30.5,63.5 35.9,62.6 43.3,59.7 43.4,57.9 37.6,57.3 "/>
<g>
	<path class="st1" d="M17.8,44.6c0.2,0.6,0.5,1,0.6,1.4c0.4,0.7,1,1.9,1.3,3.5c0,0,0.2,1.2-0.3,2.1C19.3,51.7,19,52,18.2,52
		c-1.3-0.1-2.6-0.5-3.7-1.1l0.6,4.2l5.9,5.6l3.5,0L23.9,47l-2.4-3l-1.1-1L17.8,44.6z"/>
</g>
<path class="st1" d="M11.5,36.3c0.7-1,2.1-1.2,3.1-0.6c1,0.7,1.2,2.1,0.6,3.1c-1.6,2.2-2.1,4.9-1.7,7.6c0.8,4.6,4.6,7.9,9,8.3
	c0.8,0.1,1.1-0.3,1.2-0.4c0.5-0.9,0.3-2.1,0.3-2.1c-0.3-1.5-0.9-2.7-1.3-3.5c-0.7-1.4-2.4-5.1-2.4-8.8c0.1-8.3,6.5-14.8,14.5-14.7
	c0,0,0,0,0.1,0c0,0,0,0,0.1,0c8.1,0.1,14.3,6.7,14.3,15c0,3.7-1.8,7.4-2.5,8.8c-0.4,0.7-1,1.9-1.3,3.4c0,0-0.5,2.4,1.3,3l0,0
	c0.5,0.2,1.4,0.5,1.4,0.5c0.1,0.1-3.5,2.5-5,2.5c-5.1,1.2-6,0.9-10.9,0.8c-4.8,0-6.6,3.5-10.4,1l0.6-1.1c-6.5-0.5-12-5.3-13.2-11.9
	C8.4,43.4,9.3,39.5,11.5,36.3z"/>
<ellipse transform="matrix(1 -8.585270e-03 8.585270e-03 1 -0.4463 0.3393)" class="st2" cx="39.3" cy="52.2" rx="2.7" ry="3.4"/>
<ellipse transform="matrix(1 -8.585270e-03 8.585270e-03 1 -0.4567 0.3375)" cx="39.1" cy="53.4" rx="1.2" ry="1.2"/>
<g>
	<ellipse transform="matrix(1 -8.585270e-03 8.585270e-03 1 -0.4429 0.2347)" class="st2" cx="27.1" cy="51.7" rx="4.1" ry="5.2"/>
	<ellipse transform="matrix(1 -8.585270e-03 8.585270e-03 1 -0.4584 0.2375)" cx="27.4" cy="53.5" rx="1.9" ry="1.9"/>
	<ellipse transform="matrix(1 -8.585270e-03 8.585270e-03 1 -0.4441 0.2376)" class="st2" cx="27.5" cy="51.8" rx="1.1" ry="1.1"/>
</g>
<ellipse transform="matrix(1 -8.585270e-03 8.585270e-03 1 -0.4473 0.3314)" class="st2" cx="38.4" cy="52.3" rx="0.8" ry="0.8"/>
<path class="st1" d="M41.2,59.3c0,0,0.9-0.6,2.7-0.1L43,57.5l-1.7,0.9L41.2,59.3z"/>
<path class="st3" d="M37.3,59c-0.6-0.6-1.6-0.7-2.3-0.3l-0.9-0.9c1.5-1.8,2.3-4.1,2.3-6.6c0-5.9-4.7-10.7-10.7-10.8
	c-1.8,0-3.5,0.4-5,1.2l0.9,0.9l-3.3,3.4l0,0.4c1.6-2.4,4.3-3.9,7.3-3.9c4.8,0,8.7,4,8.7,8.8c0,4.8-4,8.7-8.8,8.7
	c-4.6,0-8.3-3.6-8.7-8.1c-0.1,0-1.9-0.3-1.8-1.3c0,0-0.2-1.4-0.2,0.6c0,5.9,4.7,10.7,10.7,10.8c2.5,0,4.8-0.8,6.7-2.3l0.9,0.9
	c-0.4,0.7-0.4,1.7,0.3,2.3l0.4,0.4l5.7-1.8L37.3,59z"/>
<path class="st2" d="M1.7,7.8v67.5H358V7.8H1.7z M30.3,62.7c-13.8,0-25-11.2-25-25s11.2-25,25-25s25,11.2,25,25S44,62.7,30.3,62.7z"
	/>
<path class="st1" d="M38.1,72.9c-0.1,0-0.3,0-0.4,0c-1.4-0.3-2.5-1-3.1-2.2c-0.7-1.3-0.5-2.9,0.4-4.4c0.7-1.2,1.9-2.2,3.4-2.9
	c1.4-0.7,3-1.1,4.4-1c1.8,0.1,3.2,0.9,3.8,2.3c0.5,1,0.1,2.3-0.9,2.9c-1,0.5-2.2,0.1-2.8-0.8c-0.3-0.1-1.3-0.2-2.6,0.5
	c-1.1,0.5-1.6,1.2-1.8,1.6c1.1,0.2,1.9,1.3,1.7,2.5C40,72.2,39.1,72.9,38.1,72.9z"/>
<path class="st4" d="M46.8,70.2L36.6,59.9c-0.6-0.6-1.6-0.7-2.3-0.3l-0.9-0.9c1.5-1.8,2.3-4.1,2.3-6.6c0-5.9-4.7-10.7-10.7-10.8
	c-5.9,0-10.7,4.7-10.8,10.7c0,5.9,4.7,10.7,10.7,10.8c2.5,0,4.8-0.8,6.7-2.3l0.9,0.9c-0.4,0.7-0.4,1.7,0.3,2.3L43,74
	c0.7,0.7,1.9,0.7,2.6,0l1.1-1.1C47.5,72.1,47.5,71,46.8,70.2z M25,60.7c-4.8,0-8.7-4-8.7-8.8c0-4.8,4-8.7,8.8-8.7
	c4.8,0,8.7,4,8.7,8.8C33.7,56.9,29.8,60.8,25,60.7z"/>
<path class="st1" d="M40.4,73c-1.1,0-2.1-0.1-3.2-0.2c-1.2-0.2-2-1.3-1.8-2.5c0.2-1.2,1.3-2,2.5-1.8c0.8,0.1,1.6,0.2,2.5,0.2
	c5.5,0,9.3-2.6,9.3-4.9c0-1.9-2.4-3.8-5.8-4.5c-1.2-0.3-1.9-1.5-1.7-2.7c0.3-1.2,1.5-1.9,2.7-1.7c5.6,1.3,9.2,4.8,9.2,8.9
	C54.2,68.9,48.1,73,40.4,73z"/>
<circle class="st5" cx="25" cy="52.1" r="9.2"/>
<path class="st6" d="M22.7,58.9c0,0-0.1,0-0.2,0c-0.1,0-0.2,0-0.4-0.1c-0.1,0-0.2,0-0.3-0.1c-0.1,0-0.2-0.1-0.3-0.1
	c-0.1-0.1-0.3-0.1-0.4-0.2c-0.1-0.1-0.3-0.2-0.4-0.2c-0.1-0.1-0.3-0.2-0.4-0.3c-0.1-0.1-0.3-0.2-0.4-0.4c-0.1-0.1-0.1-0.1-0.2-0.2
	c-0.1-0.1-0.1-0.1-0.2-0.2c-0.1-0.1-0.3-0.3-0.4-0.5c-0.1-0.2-0.2-0.3-0.4-0.5c-0.1-0.2-0.2-0.4-0.3-0.6c-0.2-0.4-0.4-0.8-0.5-1.2
	c-0.1-0.4-0.2-0.9-0.3-1.3c0-0.1,0-0.2,0-0.3c0-0.1,0-0.2,0-0.3c0-0.2,0-0.4,0-0.6c0-0.2,0-0.4,0.1-0.6c0-0.1,0-0.2,0-0.3
	c0-0.1,0-0.2,0.1-0.3c0-0.2,0.1-0.4,0.1-0.5c0.1-0.2,0.1-0.3,0.2-0.5c0.1-0.1,0.1-0.3,0.2-0.4c0.1-0.1,0.1-0.3,0.2-0.4
	c0.1-0.1,0.1-0.2,0.2-0.3c0.1-0.1,0.1-0.2,0.2-0.2c0.1-0.1,0.2-0.3,0.3-0.3c0.1-0.1,0.1-0.1,0.1-0.1s0,0.1,0,0.2
	c0,0.1,0,0.2-0.1,0.4c0,0.1,0,0.2,0,0.3c0,0.1,0,0.2,0,0.3c0,0.1,0,0.2,0,0.4c0,0.1,0,0.3,0,0.4c0,0.1,0,0.3,0,0.4
	c0,0.2,0,0.3,0,0.5c0,0.1,0,0.2,0,0.2c0,0.1,0,0.2,0,0.2c0,0.2,0,0.3,0,0.5c0.1,0.3,0.1,0.7,0.2,1c0.1,0.4,0.2,0.7,0.3,1
	c0.1,0.3,0.2,0.7,0.4,1c0.1,0.3,0.3,0.6,0.5,1c0.1,0.1,0.2,0.3,0.3,0.4c0,0.1,0.1,0.1,0.1,0.2c0,0.1,0.1,0.1,0.1,0.2
	c0.1,0.1,0.2,0.3,0.3,0.4c0.1,0.1,0.2,0.2,0.3,0.4c0.1,0.1,0.2,0.2,0.3,0.3c0.1,0.1,0.2,0.2,0.2,0.3c0.1,0.1,0.2,0.2,0.2,0.3
	c0.1,0.1,0.1,0.2,0.2,0.2c0.1,0.1,0.2,0.2,0.3,0.3C22.6,58.9,22.7,58.9,22.7,58.9z"/>
<g>
	<path class="st1" d="M72.5,36.4c-1.5,0-2.9,0.5-4.1,1.3c-0.1-0.7-0.7-1.3-1.5-1.3c-0.8,0-1.5,0.7-1.5,1.5v11.1
		c0,0.8,0.6,1.5,1.4,1.5c0,0,0.1,0,0.2,0c0.8,0,1.5-0.7,1.5-1.5l0-5.5c0-2.2,1.8-4.1,4.1-4.1c2.2,0,4.1,1.8,4.1,4.1l0,5.6
		c0,0.4,0.2,0.8,0.4,1.1c0.3,0.3,0.7,0.4,1.1,0.4c0.8,0,1.5-0.7,1.5-1.5l0-5.6C79.6,39.6,76.4,36.4,72.5,36.4z"/>
	<g>
		<path class="st1" d="M125.6,36.5c-0.8,0-1.5,0.7-1.5,1.5v11.1c0,0.8,0.7,1.5,1.5,1.5c0.8,0,1.5-0.7,1.5-1.5V38
			C127.1,37.2,126.4,36.5,125.6,36.5z"/>
		<circle class="st1" cx="125.6" cy="32.6" r="1.7"/>
	</g>
	<g>
		<path class="st1" d="M149.2,36.5c-0.8,0-1.5,0.7-1.5,1.5v11.1c0,0.8,0.7,1.5,1.5,1.5c0.8,0,1.5-0.7,1.5-1.5V38
			C150.7,37.2,150,36.5,149.2,36.5z"/>
		<circle class="st1" cx="149.3" cy="32.6" r="1.7"/>
	</g>
	<path class="st1" d="M117.5,36.7c-0.4-0.2-0.8-0.2-1.2,0c-0.4,0.1-0.7,0.4-0.8,0.8l-3.6,8l-3.6-8c-0.3-0.8-1.2-1.1-2-0.8
		c-0.4,0.2-0.7,0.5-0.8,0.8c-0.1,0.4-0.1,0.8,0,1.2l5,11.1c0.2,0.5,0.8,0.9,1.4,0.9h0c0.6,0,1.1-0.4,1.4-0.9l5-11
		C118.6,37.9,118.2,37,117.5,36.7z M111.8,50.1L111.8,50.1L111.8,50.1L111.8,50.1z"/>
	<path class="st1" d="M98.1,36.4c-0.8,0-1.4,0.6-1.5,1.3c-1.2-0.8-2.6-1.3-4.1-1.3c-3.9,0-7.1,3.2-7.1,7.1s3.2,7.1,7.1,7.1
		c1.5,0,2.9-0.5,4.1-1.3c0.1,0.7,0.7,1.3,1.5,1.3c0.8,0,1.5-0.7,1.5-1.5V37.9C99.6,37.1,98.9,36.4,98.1,36.4z M96.5,43.5
		c0,2.2-1.8,4.1-4.1,4.1s-4.1-1.8-4.1-4.1c0-2.2,1.8-4.1,4.1-4.1S96.5,41.3,96.5,43.5z"/>
	<path class="st1" d="M169.2,36.4c-0.8,0-1.4,0.6-1.5,1.3c-1.2-0.8-2.6-1.3-4.1-1.3c-3.9,0-7.1,3.2-7.1,7.1c0,3.9,3.2,7.1,7.1,7.1
		c1.5,0,2.9-0.5,4.1-1.3c0.1,0.7,0.7,1.3,1.5,1.3c0.8,0,1.5-0.7,1.5-1.5V37.9C170.8,37.1,170.1,36.4,169.2,36.4z M167.7,43.5
		c0,2.2-1.8,4.1-4.1,4.1s-4.1-1.8-4.1-4.1c0-2.2,1.8-4.1,4.1-4.1S167.7,41.3,167.7,43.5z"/>
	<path class="st1" d="M142.2,38c0-0.8-0.7-1.5-1.5-1.5h-1.7l0-4c0-0.9-0.7-1.6-1.6-1.6c-0.9,0-1.6,0.7-1.6,1.6l0,4h-1.5
		c-0.8,0-1.5,0.7-1.5,1.5s0.7,1.5,1.5,1.5h1.5l0,6.4l0,0.7c0,2.2,1.8,4,4,4c0.4,0,0.8-0.1,1.2-0.2c0.8-0.3,1.3-1.1,1-2
		c-0.3-0.8-1.1-1.3-2-1c-0.1,0-0.2,0-0.3,0c-0.5,0-0.9-0.4-0.9-0.9l0-0.7l0-6.4h1.7C141.5,39.5,142.2,38.8,142.2,38z"/>
</g>
<path class="st4" d="M192.9,35.7c-1.6,0-3.2,0.5-4.4,1.5c0-0.4-0.2-0.8-0.5-1c-0.3-0.3-0.7-0.5-1.1-0.5c-0.9,0-1.6,0.7-1.6,1.5l0,17
	c0,0.4,0.2,0.8,0.5,1.1c0.3,0.3,0.7,0.5,1.1,0.5c0.9,0,1.6-0.7,1.6-1.5l0-4.9c1.3,0.9,2.8,1.5,4.4,1.5c4.1,0,7.5-3.4,7.5-7.5
	C200.4,39,197,35.7,192.9,35.7z M197.3,43.2c0,2.4-2,4.4-4.4,4.4c-2.4,0-4.4-2-4.4-4.4c0-2.4,2-4.4,4.4-4.4
	C195.3,38.7,197.3,40.7,197.3,43.2z"/>
<path class="st4" d="M206.7,32.5c0-0.9-0.7-1.6-1.6-1.6c-0.9,0-1.6,0.7-1.6,1.6l0,13.4l0,0.7c0,2.2,1.8,4,4.1,4
	c0.4,0,0.8-0.1,1.2-0.2c0.8-0.3,1.3-1.1,1-2c-0.3-0.8-1.2-1.3-2-1c-0.1,0-0.2,0-0.3,0c-0.5,0-0.9-0.4-0.9-0.9V32.5z"/>
<path class="st4" d="M225.6,35.7c-0.8,0-1.5,0.7-1.5,1.5c-1.3-0.9-2.8-1.5-4.4-1.5c-4.1,0-7.5,3.4-7.5,7.5c0,4.1,3.4,7.5,7.5,7.5
	c1.6,0,3.2-0.5,4.4-1.5c0.1,0.8,0.7,1.4,1.5,1.4c0.8,0,1.5-0.7,1.5-1.5V37.2C227.1,36.4,226.4,35.7,225.6,35.7z M224,43.2
	c0,2.4-2,4.4-4.4,4.4c-2.4,0-4.4-2-4.4-4.4c0-2.4,2-4.4,4.4-4.4C222,38.8,224,40.8,224,43.2z"/>
<path class="st4" d="M346.4,31c-0.9,0-1.6,0.7-1.6,1.6l0,4.5c-1.3-0.9-2.8-1.4-4.3-1.4c-4.1,0-7.5,3.4-7.5,7.5
	c0,4.1,3.4,7.5,7.5,7.5c1.6,0,3.2-0.5,4.4-1.5c0.1,0.8,0.7,1.4,1.5,1.4c0.8,0,1.5-0.7,1.5-1.5v-2.4v-9.5v-4.7
	C348,31.7,347.3,31,346.4,31z M340.5,47.6c-2.4,0-4.4-2-4.4-4.4c0-2.4,2-4.4,4.4-4.4s4.4,2,4.4,4.4C344.9,45.7,343,47.6,340.5,47.6z
	"/>
<g>
	<path class="st4" d="M230.8,43.9c0.3,3.7,3.4,6.6,7.1,6.5c1.4,0,2.8-0.4,3.9-1.2v2.3c0,0.5-0.4,0.9-0.9,0.9c-0.1,0-0.2,0-0.3,0
		c-0.8-0.3-1.7,0.2-2,1c-0.3,0.8,0.2,1.7,1,2c0.4,0.1,0.8,0.2,1.2,0.2c2.3,0,4.1-1.8,4.1-4c0,0,0-14.5,0-14.5
		c-0.1-0.7-0.7-1.3-1.5-1.3c-0.8,0-1.5,0.7-1.5,1.5l0,6.4l0,0c-0.2,2.1-1.9,3.8-4,3.8c-2.1,0-3.9-1.7-4.1-3.8c0,0-0.1-6.6-0.1-6.6
		c-0.1-0.7-0.7-1.3-1.5-1.3c-0.8,0-1.5,0.7-1.5,1.5C230.7,37.2,230.7,43.7,230.8,43.9z"/>
</g>
<path class="st4" d="M262.9,37.2c0-0.1,0-0.2,0-0.3c0,0,0,0,0,0c-0.1-0.7-0.7-1.3-1.5-1.3c-0.7,0-1.3,0.5-1.4,1.1
	c0,0.1-0.1,0.3-0.1,0.4c-1.3-0.9-2.8-1.5-4.4-1.5c-4.1,0-7.5,3.4-7.5,7.5c0,4.1,3.4,7.5,7.5,7.5c1.6,0,3.1-0.5,4.4-1.4l0,2.2
	c0,0.5-0.4,0.9-0.9,0.9c-0.1,0-0.2,0-0.3,0c-0.8-0.3-1.7,0.2-2,1c-0.3,0.8,0.2,1.7,1,2c0.4,0.1,0.8,0.2,1.2,0.2c2.3,0,4.1-1.8,4.1-4
	c0,0,0-0.9,0-2.3c0,0,0,0,0,0V37.2z M255.4,47.6c-2.4,0-4.4-2-4.4-4.4c0-2.4,2-4.4,4.4-4.4c2.4,0,4.4,2,4.4,4.4
	C259.8,45.7,257.8,47.6,255.4,47.6z"/>
<path class="st4" d="M276.7,35.8L276.7,35.8c0,0-0.1,0-0.1,0c0,0,0,0,0,0c-0.6-0.2-1.2-0.2-1.8-0.2c-1.2,0-2.3,0.3-3.3,0.9
	c-0.4,0.2-0.8,0.4-1.2,0.7c0-0.8-0.7-1.5-1.5-1.5c-0.8,0-1.5,0.7-1.5,1.5v11.9c0,0.8,0.7,1.5,1.5,1.5c0.8,0,1.5-0.6,1.5-1.4
	c0,0,0,0,0,0c0,0,0-6,0-6.1c0-0.4,0.1-0.8,0.1-1.1c0.4-1.9,2-3.3,4-3.3c0.4,0,0.7,0.1,1.1,0.2c0.1,0,0.1,0,0.2,0l0,0
	c0.2,0.1,0.3,0.1,0.5,0.1c0.9,0,1.6-0.7,1.6-1.6C277.8,36.6,277.3,36,276.7,35.8z"/>
<path class="st4" d="M285.5,50.7c-4.2,0-7.5-3.4-7.5-7.5s3.4-7.5,7.5-7.5s7.5,3.4,7.5,7.5S289.6,50.7,285.5,50.7z M285.5,38.8
	c-2.4,0-4.3,1.9-4.3,4.3s1.9,4.3,4.3,4.3s4.3-1.9,4.3-4.3S287.8,38.8,285.5,38.8z"/>
<path class="st4" d="M309.4,35.7C309.4,35.7,309.4,35.7,309.4,35.7C309.4,35.7,309.4,35.7,309.4,35.7
	C309.4,35.7,309.4,35.7,309.4,35.7c-0.9,0-1.6,0.7-1.6,1.6l0,5.8c0,2.4-1.9,4.3-4.3,4.3s-4.3-1.9-4.3-4.3l0-5.8
	c0-0.9-0.7-1.6-1.6-1.6c0,0,0,0,0,0c-0.9,0-1.6,0.7-1.6,1.6l0,5.8c0,4.2,3.4,7.5,7.5,7.5c1.6,0,3.2-0.5,4.4-1.4
	c0.2,0.7,0.8,1.1,1.5,1.1c0.9,0,1.6-0.7,1.6-1.6V37.3C311,36.4,310.3,35.7,309.4,35.7z"/>
<path class="st4" d="M322.4,35.7c-1.6,0-3.2,0.5-4.4,1.4c-0.2-0.7-0.8-1.1-1.5-1.1c-0.9,0-1.6,0.7-1.6,1.6v11.5
	c0,0.9,0.7,1.6,1.6,1.6c0,0,0,0,0,0c0,0,0,0,0,0c0,0,0,0,0,0c0.9,0,1.6-0.7,1.6-1.6l0-5.8c0-2.4,1.9-4.3,4.3-4.3s4.3,1.9,4.3,4.3
	l0,5.8c0,0.9,0.7,1.6,1.6,1.6c0,0,0,0,0,0c0.9,0,1.6-0.7,1.6-1.6l0-5.8C330,39.1,326.6,35.7,322.4,35.7z"/>
</svg>
