<?xml version="1.0" encoding="utf-8"?>
<!-- Generator: Adobe Illustrator 19.2.1, SVG Export Plug-In . SVG Version: 6.00 Build 0)  -->
<svg version="1.0" id="Calque_1" xmlns="http://www.w3.org/2000/svg" xmlns:xlink="http://www.w3.org/1999/xlink" x="0px" y="0px"
	 viewBox="0 0 1284.1 192" style="enable-background:new 0 0 1284.1 192;" xml:space="preserve">
<style type="text/css">
	.st0{fill:#E07F20;}
	.st1{fill:#ADB72C;}
	.st2{fill:#56B5DB;}
	.st3{fill:#008ACA;}
	.st4{fill:#89C6E5;}
	.st5{fill:#F2DF91;}
	.st6{opacity:0.59;fill:#C6BA85;enable-background:new    ;}
	.st7{fill:#C6BA85;}
	.st8{fill:#566671;}
	.st9{fill:#FFFFFF;}
	.st10{fill:#414F56;}
	.st11{fill:#EFBF8F;}
</style>
<title>n_playground</title>
<path class="st0" d="M674.9,98.5c-6.2,0-12.2,2-17.2,5.6c-0.1-3.3-2.8-6-6.1-5.9s-6,2.8-5.9,6.1v65.8c0,3.3,2.7,6,6,6
	c3.3,0,6-2.7,6-6v-19.3c12.9,9.5,31.1,6.8,40.6-6.1c9.5-12.9,6.8-31.1-6.1-40.6C687.2,100.5,681.1,98.5,674.9,98.5z M692,127.5
	c0,9.5-7.7,17.1-17.1,17.1c-9.5,0-17.1-7.7-17.1-17.1s7.7-17.1,17.1-17.1l0,0C684.4,110.4,692,118,692,127.5z"/>
<path class="st1" d="M728.4,86.4c0-3.4-2.8-6.2-6.2-6.2c-3.4,0-6.2,2.8-6.2,6.2v54.9c0.1,8.6,7.2,15.5,15.8,15.5
	c1.6,0,3.2-0.2,4.8-0.7c3.2-1,4.9-4.4,3.9-7.6c0-0.1,0-0.1-0.1-0.2c-1.1-3.2-4.5-4.9-7.7-3.9c-0.3,0.1-0.7,0.1-1,0
	c-1.9,0-3.5-1.5-3.5-3.4c0,0,0,0,0,0V86.4H728.4z"/>
<path class="st2" d="M801.3,98.6c-3.2,0-5.8,2.5-5.9,5.6c-12.9-9.5-31.1-6.8-40.6,6.1c-9.5,12.9-6.8,31.1,6.1,40.6
	c10.2,7.6,24.2,7.6,34.5,0c0.1,3.3,2.9,5.8,6.2,5.7s5.8-2.9,5.7-6.2v-46C807.2,101.3,804.6,98.7,801.3,98.6z M795.3,127.6
	c0,9.5-7.7,17.1-17.1,17.1c-9.5,0-17.1-7.7-17.1-17.1s7.7-17.1,17.1-17.1l0,0C787.6,110.5,795.3,118.2,795.3,127.6L795.3,127.6z"/>
<path class="st0" d="M1268.9,80.3c-3.4,0-6.1,2.7-6.2,6c0,0,0,0,0,0v17.6c-13.1-9.2-31.2-6.1-40.4,7s-6.1,31.2,7,40.4
	c10.2,7.2,23.9,7.1,34-0.4c0.1,3.3,2.9,5.8,6.2,5.7s5.8-2.9,5.7-6.2V86.4C1275.1,83,1272.3,80.3,1268.9,80.3
	C1268.9,80.3,1268.9,80.3,1268.9,80.3z M1246.1,144.7c-9.5,0-17.1-7.7-17.1-17.1c0-9.5,7.7-17.1,17.1-17.1c9.5,0,17.1,7.7,17.1,17.1
	c0,0,0,0,0,0C1263.2,137.1,1255.5,144.7,1246.1,144.7z"/>
<path class="st0" d="M821.4,130.2c1.2,15.1,14.5,26.4,29.6,25.2c4.6-0.4,9.1-1.9,13-4.5v8.8c0,1.9-1.6,3.4-3.5,3.4c0,0,0,0,0,0
	c-0.3,0.1-0.7,0.1-1,0c-3.2-1-6.6,0.7-7.7,3.9c-1.1,3.1,0.6,6.6,3.7,7.7c0.1,0,0.1,0,0.2,0.1c1.6,0.5,3.2,0.7,4.8,0.7
	c8.6,0.1,15.7-6.8,15.8-15.5v-56.3c-0.7-3.2-3.8-5.2-7-4.5c-2.5,0.6-4.4,2.7-4.6,5.3v24.8l0,0c-0.6,8.7-8.1,15.2-16.8,14.6
	c-7.8-0.5-14.1-6.8-14.6-14.6c0,0-0.2-25.6-0.2-25.6c-0.7-3.2-3.8-5.2-7-4.5c-2.5,0.6-4.4,2.7-4.6,5.3
	C821.3,104.6,821.3,129.6,821.4,130.2z"/>
<path class="st1" d="M945.6,104.5c0-0.3,0-0.6,0-1l0,0c-0.9-3.2-4.3-4.9-7.4-4c-2.2,0.7-3.9,2.6-4.2,4.9c-12.8-9.6-31-7.1-40.6,5.7
	c-9.6,12.8-7.1,31,5.7,40.6c10.1,7.6,24,7.8,34.3,0.5v8.4c0,1.9-1.6,3.4-3.5,3.4c0,0,0,0,0,0c-0.3,0.1-0.7,0.1-1,0
	c-3.2-1-6.6,0.7-7.7,3.9c-1.1,3.1,0.6,6.6,3.7,7.7c0.1,0,0.1,0,0.2,0.1c1.6,0.5,3.2,0.7,4.8,0.7c8.6,0.1,15.7-6.8,15.8-15.5
	c0,0,0-3.6,0-9l0,0V104.5z M916.6,144.7c-9.5,0-17.1-7.7-17.1-17.1s7.7-17.1,17.1-17.1c9.5,0,17.1,7.7,17.1,17.1c0,0,0,0,0,0
	C933.7,137.1,926.1,144.7,916.6,144.7z"/>
<path class="st2" d="M999,99.1L999,99.1h-0.6l0,0c-6.6-1.8-13.7-0.9-19.7,2.5c-1.6,0.8-3.1,1.7-4.5,2.7c-0.1-3.3-2.8-5.9-6.1-5.8
	c-3.3,0.1-5.9,2.8-5.8,6.1v45.9c-0.1,3.3,2.4,6,5.7,6.2s6-2.4,6.2-5.7l0,0c0,0,0-23.2,0-23.5c0-1.5,0.2-2.9,0.6-4.4
	c1.6-8.6,9.9-14.2,18.5-12.6c0.4,0.1,0.9,0.2,1.3,0.3h0.6l0,0c0.6,0.2,1.3,0.3,1.9,0.3c3.4-0.2,6-3.2,5.8-6.6
	C1002.8,102.1,1001.3,100,999,99.1z"/>
<path class="st0" d="M1033.1,156.5c-16.1,0-29.2-13.1-29.2-29.2c0-16.1,13.1-29.2,29.2-29.2c16.1,0,29.2,13.1,29.2,29.2
	C1062.2,143.4,1049.2,156.5,1033.1,156.5z M1033.1,110.6c-9.2,0-16.7,7.5-16.7,16.7c0,9.2,7.5,16.7,16.7,16.7
	c9.2,0,16.7-7.5,16.7-16.7C1049.8,118.1,1042.3,110.6,1033.1,110.6z"/>
<path class="st1" d="M1125.7,98.6L1125.7,98.6c-3.4,0-6.2,2.8-6.3,6.2c0,0,0,0.1,0,0.1v22.6c0,9.2-7.5,16.7-16.7,16.7
	s-16.7-7.5-16.7-16.7v-22.6c0-3.4-2.8-6.2-6.2-6.2l0,0c-3.4,0-6.2,2.8-6.2,6.2v22.6c0,16.1,13,29.1,29.1,29.2
	c6.1,0,12.1-1.9,17.1-5.5c0.9,3.3,4.3,5.2,7.6,4.3c2.7-0.8,4.6-3.3,4.5-6.1v-44.3C1132,101.4,1129.3,98.6,1125.7,98.6
	C1125.8,98.6,1125.8,98.6,1125.7,98.6z"/>
<path class="st2" d="M1176.2,98.6c-6.1,0-12.1,1.9-17,5.5c-0.9-3.3-4.3-5.2-7.6-4.3c-2.7,0.8-4.6,3.3-4.5,6.1v44.3
	c0,3.4,2.8,6.2,6.2,6.2l0,0c3.4,0,6.2-2.8,6.2-6.2v-22.6c0-9.2,7.5-16.7,16.7-16.7c9.2,0,16.7,7.5,16.7,16.7v22.6
	c0,3.4,2.8,6.2,6.2,6.2l0,0c3.4,0,6.2-2.8,6.2-6.2v-22.6C1205.3,111.6,1192.2,98.6,1176.2,98.6z"/>
<path class="st2" d="M40.6,153.3c0.9,0,1.5-0.7,1.5-1.5l0,0V94.3c0-0.9-0.7-1.5-1.5-1.5c-0.9,0-1.5,0.7-1.5,1.5v57.4
	C39.1,152.6,39.8,153.3,40.6,153.3z"/>
<path class="st3" d="M40.6,154.3c1.4,0,2.6-1.2,2.6-2.6v-12.9c-0.2-1.4-1.5-2.4-2.9-2.3c-1.2,0.1-2.1,1.1-2.3,2.3v12.9
	C38.1,153.1,39.2,154.3,40.6,154.3z"/>
<path class="st3" d="M30.1,156.2l-1.4-12.3c-0.1-0.8,0.5-1.6,1.3-1.8c0.1,0,0.1,0,0.2,0H51c0.9,0,1.5,0.7,1.5,1.6c0,0.1,0,0.1,0,0.2
	l-1.4,12.3c-0.1,0.7-0.8,1.3-1.5,1.3H31.6C30.8,157.5,30.2,156.9,30.1,156.2z"/>
<polygon class="st4" points="48.8,155.3 50,144.3 43.3,144.3 42.1,155.3 "/>
<polygon class="st4" points="32.5,155.3 31.2,144.3 38,144.3 39.2,155.3 "/>
<path class="st5" d="M5.1,166.9c1.4-8.6,13-9.9,13-9.9c1.8-0.1,3.5-0.9,4.6-2.3c4.4-3.9,11.1-0.3,11.1-0.3c4.3,1,8.7,1.3,13.1,0.8
	c0.7-0.2,1.3-0.5,1.9-1c1.5-1.1,3.7-1,5,0.4c1.5,0.5,3.2,0.1,4.3-1.1c2.6-3.4,8.5-1.4,8.5-1.4l12.8,1.9c2.3,0.6,4.8-0.5,5.8-2.7
	l7.7-48.5h40.4l7.5,47.8v-0.2c0,0,0,1.4,3.4,1.1c5.6-1.7,11.4-2.4,17.2-2.2c3.3,0.4,6.5,1.2,9.5,2.4c5.5,2.6,10.4,6.5,14.3,11.2
	c1.1,2.3,3.2,10.7-21.4,11.4c0,0-27.1-1.9-28.5,2.2c0,0-1.4,16-51.8,5.3c-14-4.1-28.4-6.9-42.9-8.6c0,0-10.3-0.4-12.3,2.6
	c-0.9,1.5-2.3,2.6-3.9,3.2c-1.1,0.4-2.3,0.7-3.6,0.7C20.8,179.9,1.5,182.8,5.1,166.9z"/>
<path class="st6" d="M90.9,136.9c0.7-0.4,1.7-0.2,2.1,0.5c0,0,0,0,0,0c2.5,4.2,5.8,7.9,9.7,10.9c12.2,9.5,27.3,10.6,33.7,2.4
	c2-2.7,3-6.1,2.7-9.5l1.6,8.2c-0.5,1.2-1.2,2.3-1.9,3.3c-3.8,4.5-9.6,7-15.5,6.6c-8.3-0.3-16.3-3.2-22.7-8.5
	c-4.2-3.2-7.7-7.1-10.5-11.6c-0.5-0.7-0.3-1.7,0.5-2.1C90.7,136.9,90.8,136.9,90.9,136.9z"/>
<path class="st7" d="M151.8,151.5l2.4-2.1c2.4-0.3,4.9-0.3,7.4,0c3.1,0.3,6.1,1.1,9.1,2.2c0,0.4-0.1,0.8-0.3,1.2
	c-3.9,3.7-9.5,5.1-14.7,3.6C153.5,155.6,152.1,153.7,151.8,151.5z"/>
<path class="st7" d="M72,157.6c-10.9,0.4-11.1-5.8-11.1-5.8l0.8-0.2c1.7-0.2,3.4,0,5.1,0.5l9.7,1.4C77.7,157.9,72,157.6,72,157.6z"
	/>
<path class="st8" d="M85.5,82c0-0.2,0-0.5,0-0.7c-0.1-4.9-1.4-9.7-3.9-13.9c-3.7-6.9-5.9-14.6-6.3-22.5
	C74.7,24.5,90.7,7.4,111.1,6.8c20.4-0.7,37.5,15.3,38.1,35.7c0,0.8,0,1.6,0,2.4c-0.4,7.9-2.6,15.6-6.3,22.6c-2.4,4.2-3.8,9-3.9,13.8
	c0,0.3,0,0.5,0,0.8c0,9.4,15.5,29.1,14.6,29c6.3,5.5,10,13.4,10,21.7v18c0,3.3-2.7,6-6,6c-3.3,0-6-2.7-6-6l0,0v-18
	c0.4-9.2-6.7-17-15.9-17.5c-9.2-0.4-17,6.7-17.5,15.9c0,0.5,0,1.1,0,1.6h-12c0.4-9.2-6.7-17-15.9-17.5c-9.2-0.4-17,6.7-17.5,15.9
	c0,0.5,0,1.1,0,1.6v18c0,3.3-2.7,6-6,6c-3.3,0-6-2.7-6-6l0,0v-18c0-8.4,3.6-16.3,10-21.7c4.3-1.5,8.2-4,11.3-7.4
	c1.4-1.7-0.7-5,0.4-7C84.8,92.1,85.8,87.1,85.5,82z"/>
<ellipse class="st9" cx="123.6" cy="75.9" rx="6.9" ry="8.8"/>
<ellipse class="st9" cx="100.1" cy="75.9" rx="6.9" ry="8.8"/>
<path class="st10" d="M110.4,135.8l18.9-38.3l10.4-11.4c2.9,10.1,14.7,25.1,13.9,25c2.1,1.8,3.9,3.9,5.4,6.2
	c-1.4,5.1-4,9.7-7.7,13.3c-1.1-9.1-9.3-15.7-18.5-14.6c-8.5,1-14.9,8.3-14.7,16.8l-11.9,5.7L110.4,135.8z"/>
<path class="st11" d="M94.5,92.6c0.3-1.7,37-1.7,37.3,0c0,0,7.7,47.9,7.7,48.1c0,3.7-11.6,6.6-26.3,6.6s-26.3-3-26.3-6.6
	C86.9,140.5,94.5,92.6,94.5,92.6z"/>
<ellipse class="st0" cx="113.2" cy="92.6" rx="18.6" ry="3"/>
<path class="st8" d="M139.1,78.7c-0.4,3.2,0.8,6.5,3.3,8.6l-3.9,1.2l-2.3-4.4l1.1-4.6L139.1,78.7z"/>
<path class="st8" d="M35.7,101c5.2-16.4,22.7-25.5,39.1-20.3c6.3,2,11.8,5.9,15.7,11.3l-1.2,5.2l-2.2,6.8h2.2v7.4l-9.4,3.2l-5.8,3.9
	l0.2,1l-6.5-5.1c2.1-2.7,4.8-4.9,7.7-6.6c3.7-2.2,4.9-7,2.7-10.6c-0.7-1.1-1.6-2-2.7-2.7l0,0c-8.8-5.6-20.4-3-26,5.8
	c-0.9,1.4-1.6,3-2.1,4.6c-1.1,3.3-4.6,5-7.8,4C36.4,107.7,34.6,104.2,35.7,101L35.7,101z"/>
<path class="st8" d="M85.5,81.1c0,1.6-1.2,2.8-2.8,2.9c-0.6,0-1.1-0.2-1.6-0.5v3.3l5.2,1.4l1.9-3.2L85.5,81.1z"/>
<path class="st1" d="M123.5,156.1c5.9,0.4,11.7-2.1,15.5-6.6c4.4-5.6,4.6-13.9,0.5-22.2c-0.4-0.8-1.3-1.1-2.1-0.7s-1.1,1.3-0.7,2.1
	c3.5,7.2,3.4,14.3,0,19c-6.3,8.2-21.4,7.1-33.7-2.4c-3.9-3-7.2-6.7-9.7-10.9c-0.5-0.7-1.4-0.9-2.2-0.4c-0.6,0.4-0.8,1.3-0.5,1.9
	c2.7,4.5,6.3,8.4,10.5,11.6C107.5,152.7,115.3,155.7,123.5,156.1z"/>
<path class="st8" d="M124.6,131.9c16.6,0,30.1-11.1,30.1-24.7c0-10.4-7.7-19.6-19.3-23.2c-2.3,2.2-3.6,5.3-3.4,8.6
	c0.3,1.8,0.6,3.6,0.6,3.6c5.9,2.1,9.9,6.4,9.9,11c0,6.7-8.2,12.3-17.8,12.3c-1.6,0-3.2-0.2-4.8-0.5c-3.4-0.4-6.5,1.9-6.9,5.3
	c-0.4,3.1,1.5,6,4.5,6.8C119.8,131.6,122.2,131.9,124.6,131.9z"/>
<ellipse transform="matrix(8.551972e-03 -1 1 8.551972e-03 44.1218 201.4653)" cx="123.7" cy="78.5" rx="3" ry="3"/>
<ellipse transform="matrix(8.551972e-03 -1 1 8.551972e-03 48.4774 200.5516)" class="st9" cx="125.4" cy="75.8" rx="1.9" ry="1.9"/>
<ellipse transform="matrix(8.551972e-03 -1 1 8.551972e-03 20.5996 177.7393)" cx="99.9" cy="78.5" rx="3" ry="3"/>
<ellipse transform="matrix(8.551972e-03 -1 1 8.551972e-03 24.9548 176.8253)" class="st9" cx="101.6" cy="75.8" rx="1.9" ry="1.9"/>
<path class="st8" d="M242.5,99.6c-6.2,0-12.1,2-17.1,5.7c-0.5-3.2-3.4-5.4-6.6-5c-2.7,0.4-4.8,2.6-5,5.3v44.9c0,3.1,2.4,5.6,5.4,5.8
	c0.2,0,0.5,0,0.7,0c3.2,0,5.8-2.6,5.8-5.8V128c0.4-9.3,8.4-16.5,17.7-16c8.7,0.4,15.6,7.4,16,16v22.6c0.4,3.2,3.3,5.5,6.5,5.1
	c2.7-0.3,4.8-2.4,5.1-5.1V128C271,112.3,258.2,99.6,242.5,99.6z"/>
<path class="st8" d="M434.9,99.9c-3.2,0-5.8,2.6-5.8,5.8v0v44.9c-0.4,3.2,1.9,6.1,5.1,6.5c3.2,0.4,6.1-1.9,6.5-5.1
	c0.1-0.4,0.1-0.9,0-1.3v-44.9C440.6,102.6,438.1,99.9,434.9,99.9z"/>
<circle class="st8" cx="434.9" cy="87.4" r="6.5"/>
<path class="st8" d="M516,99.9c-3.2,0-5.8,2.6-5.8,5.8v44.9c-0.4,3.2,1.9,6.1,5.1,6.5s6.1-1.9,6.5-5.1c0.1-0.4,0.1-0.9,0-1.3v-44.9
	C521.8,102.6,519.2,99.9,516,99.9z"/>
<circle class="st8" cx="516" cy="87.4" r="6.5"/>
<path class="st8" d="M412,103.8L412,103.8c-1.1-3-4.5-4.5-7.5-3.4c-1.5,0.5-2.6,1.7-3.3,3.1l-14.9,33l-15-33.2c-1.5-2.9-5-4-7.9-2.6
	c-2.7,1.4-3.9,4.6-2.8,7.4l20.3,45c1.3,2.9,4.8,4.2,7.7,2.9c1.3-0.6,2.3-1.6,2.9-2.9l20.3-44.8C412.5,106.9,412.6,105.3,412,103.8z"
	/>
<path class="st8" d="M338.2,99.4c-3.1,0-5.7,2.5-5.8,5.6c-12.7-9.4-30.6-6.7-39.9,6c-9.4,12.7-6.7,30.6,6,39.9
	c10.1,7.5,23.9,7.5,33.9,0c0.5,3.2,3.4,5.4,6.6,4.9c2.7-0.4,4.8-2.6,5-5.4v-45.2C343.9,102.1,341.4,99.5,338.2,99.4z M315.4,144.8
	c-9.3,0-16.9-7.6-16.9-16.9c0-9.3,7.6-16.9,16.9-16.9c9.3,0,16.9,7.6,16.9,16.9c0,0,0,0.1,0,0.1
	C332.2,137.3,324.7,144.8,315.4,144.8z"/>
<path class="st8" d="M590.3,99.4c-3.1,0-5.7,2.5-5.8,5.6c-12.7-9.4-30.6-6.7-39.9,6s-6.7,30.6,6,39.9c10.1,7.5,23.9,7.5,33.9,0
	c0.5,3.2,3.4,5.4,6.6,4.9c2.7-0.4,4.8-2.6,5-5.4v-45.2C596.1,102.1,593.5,99.5,590.3,99.4z M584.4,128c0,9.3-7.6,16.9-16.9,16.8
	c-9.3,0-16.9-7.6-16.8-16.9c0-9.3,7.5-16.8,16.8-16.8c9.3,0,16.9,7.5,16.9,16.8C584.4,128,584.4,128,584.4,128z"/>
<path class="st8" d="M485.6,144.6L485.6,144.6c-2.1,0.5-4.2-0.9-4.6-2.9c0-0.2-0.1-0.3-0.1-0.5v-30.1h6.6c3.2-0.4,5.5-3.3,5.1-6.5
	c-0.3-2.7-2.4-4.8-5.1-5.1h-6.6V86.2c-0.5-3.2-3.5-5.4-6.8-4.9c-2.5,0.4-4.4,2.4-4.9,4.9v13.2h-5.7c-3.2,0.4-5.5,3.3-5.1,6.5
	c0.3,2.7,2.4,4.8,5.1,5.1h5.7v30c0.1,8.5,7.1,15.4,15.6,15.4c1.5,0,3-0.2,4.4-0.7c3-1.1,4.6-4.5,3.5-7.5
	C491.8,145.2,488.6,143.6,485.6,144.6z"/>
</svg>
