<svg id="picto_docs" xmlns="http://www.w3.org/2000/svg" viewBox="0 0 56.87 46.37"><defs><style>.cls-1{fill:#383838;}</style></defs><title>picto_doc</title><path class="cls-1" d="M48.92,74.49a1.42,1.42,0,0,1-1.42-1.42V36.37a1.41,1.41,0,0,1,.24-0.79C48.06,35.1,55.9,23.73,76.35,30a1.42,1.42,0,0,1,1,1.35V68.07a1.42,1.42,0,0,1-1.78,1.37C58.2,64.88,50.32,73.63,50,74A1.43,1.43,0,0,1,48.92,74.49Zm1.42-37.65V70c3.7-2.67,11.58-6.49,24.18-3.7V32.43C58.65,27.94,51.66,35.22,50.34,36.84Z" transform="translate(-20.49 -28.12)"/><path class="cls-1" d="M48.92,74.49A1.41,1.41,0,0,1,47.84,74c-0.32-.37-8.2-9.12-25.58-4.55a1.42,1.42,0,0,1-1.78-1.37V31.37a1.42,1.42,0,0,1,1-1.35c20.45-6.28,28.29,5.09,28.61,5.57a1.41,1.41,0,0,1,.24.79V73.08A1.42,1.42,0,0,1,48.92,74.49Zm-17.11-9.2A26.41,26.41,0,0,1,47.5,70V36.84c-1.33-1.67-8.22-8.94-24.18-4.41V66.27A39.13,39.13,0,0,1,31.81,65.29Z" transform="translate(-20.49 -28.12)"/><path class="cls-1" d="M55.6,40.64a1.42,1.42,0,0,1-.53-2.73A26,26,0,0,1,69.4,36.44a1.42,1.42,0,1,1-.52,2.79,23.17,23.17,0,0,0-12.75,1.31A1.42,1.42,0,0,1,55.6,40.64Z" transform="translate(-20.49 -28.12)"/><path class="cls-1" d="M55.6,46.64a1.42,1.42,0,0,1-.53-2.73A26,26,0,0,1,69.4,42.44a1.42,1.42,0,1,1-.52,2.79,23.16,23.16,0,0,0-12.75,1.31A1.42,1.42,0,0,1,55.6,46.64Z" transform="translate(-20.49 -28.12)"/><path class="cls-1" d="M55.6,52.64a1.42,1.42,0,0,1-.53-2.73A26.1,26.1,0,0,1,69.4,48.44a1.42,1.42,0,1,1-.52,2.79,23.21,23.21,0,0,0-12.75,1.31A1.42,1.42,0,0,1,55.6,52.64Z" transform="translate(-20.49 -28.12)"/><path class="cls-1" d="M55.6,58.65a1.42,1.42,0,0,1-.53-2.73A26.06,26.06,0,0,1,69.4,54.45a1.42,1.42,0,1,1-.52,2.79,23.17,23.17,0,0,0-12.75,1.31A1.42,1.42,0,0,1,55.6,58.65Z" transform="translate(-20.49 -28.12)"/></svg>