<?xml version="1.0" encoding="utf-8"?>
<!-- Generator: Adobe Illustrator 19.2.1, SVG Export Plug-In . SVG Version: 6.00 Build 0)  -->
<svg version="1.0" id="picto_docs" xmlns="http://www.w3.org/2000/svg" xmlns:xlink="http://www.w3.org/1999/xlink" x="0px" y="0px"
	 viewBox="0 0 20 20" style="enable-background:new 0 0 20 20;" xml:space="preserve">
<style type="text/css">
	.st0{fill:#383838;}
</style>
<title>picto_doc</title>
<g>
	<path class="st0" d="M19.2,3c-5.6-1.7-8.4,0.4-9.4,1.4c-1-1-3.8-3.1-9.4-1.4C0.1,3.1,0,3.3,0,3.5v12.6c0,0.2,0.1,0.3,0.2,0.4
		c0.1,0.1,0.3,0.1,0.4,0.1c6-1.6,8.7,1.4,8.8,1.6c0,0,0,0,0.1,0.1c0,0,0,0,0,0c0,0,0.1,0.1,0.1,0.1c0,0,0,0,0,0c0,0,0,0,0,0
		c0.1,0,0.1,0,0.2,0c0,0,0,0,0,0c0,0,0.1,0,0.1,0c0,0,0,0,0,0c0,0,0,0,0,0c0,0,0.1,0,0.1-0.1c0,0,0,0,0,0c0,0,0,0,0.1-0.1
		c0.1-0.1,2.8-3.1,8.8-1.6c0.1,0,0.3,0,0.4-0.1c0.1-0.1,0.2-0.2,0.2-0.4V3.5C19.5,3.3,19.4,3.1,19.2,3z M3.9,15.1
		C3,15.1,2,15.2,1,15.4V3.8c5.5-1.6,7.8,0.9,8.3,1.5v11.4C8.3,16,6.5,15.1,3.9,15.1z M18.5,15.4c-4.3-1-7,0.4-8.3,1.3V5.3
		c0.5-0.6,2.9-3.1,8.3-1.5V15.4z"/>
	<path class="st0" d="M11.9,5.7c-0.2,0.1-0.4,0.4-0.3,0.6c0.1,0.2,0.3,0.3,0.5,0.3c0.1,0,0.1,0,0.2,0c0.8-0.3,2.4-0.8,4.4-0.4
		c0.3,0,0.5-0.1,0.6-0.4c0-0.3-0.1-0.5-0.4-0.6C14.6,4.8,12.8,5.3,11.9,5.7z"/>
	<path class="st0" d="M16.8,7.3c-2.2-0.4-4,0.1-4.9,0.5c-0.2,0.1-0.4,0.4-0.3,0.6c0.1,0.2,0.3,0.3,0.5,0.3c0.1,0,0.1,0,0.2,0
		c0.8-0.3,2.4-0.8,4.4-0.4c0.3,0.1,0.5-0.1,0.6-0.4C17.2,7.6,17,7.3,16.8,7.3z"/>
	<path class="st0" d="M16.8,9.3c-2.2-0.4-4,0.1-4.9,0.5c-0.2,0.1-0.4,0.4-0.3,0.6c0.1,0.2,0.3,0.3,0.5,0.3c0.1,0,0.1,0,0.2,0
		c0.8-0.3,2.4-0.8,4.4-0.4c0.3,0.1,0.5-0.1,0.6-0.4C17.2,9.6,17,9.4,16.8,9.3z"/>
	<path class="st0" d="M16.8,11.4c-2.2-0.4-4,0.1-4.9,0.5c-0.2,0.1-0.4,0.4-0.3,0.6c0.1,0.2,0.3,0.3,0.5,0.3c0.1,0,0.1,0,0.2,0
		c0.8-0.3,2.4-0.8,4.4-0.4c0.3,0.1,0.5-0.1,0.6-0.4C17.2,11.7,17,11.4,16.8,11.4z"/>
</g>
</svg>
