<?xml version="1.0" encoding="utf-8"?>
<!-- Generator: Adobe Illustrator 20.0.0, SVG Export Plug-In . SVG Version: 6.00 Build 0)  -->
<svg version="1.1" id="Calque_1" xmlns="http://www.w3.org/2000/svg" xmlns:xlink="http://www.w3.org/1999/xlink" x="0px" y="0px"
	 width="40px" height="40px" viewBox="0 0 40 40" style="enable-background:new 0 0 40 40;" xml:space="preserve">
<style type="text/css">
	.st0{fill:#353535;}
</style>
<g>
	<path class="st0" d="M38.2,7.2l-5.1-5.1c-0.5-0.5-1.1-0.7-1.7-0.7h-1.6v11.9c0,0.9-0.7,1.6-1.6,1.6H11.4c-0.9,0-1.6-0.7-1.6-1.6
		V1.4H3.9c-1.8,0-3.2,1.4-3.2,3.2v31.9c0,1.8,1.4,3.2,3.2,3.2h31.9c1.8,0,3.2-1.4,3.2-3.2V8.9C38.9,8.2,38.7,7.6,38.2,7.2z
		 M35.8,34.5c0,1.1-0.9,1.9-1.9,1.9H5.8c-1.1,0-1.9-0.9-1.9-1.9V21.7c0-1.1,0.9-1.9,1.9-1.9h28.1c1.1,0,1.9,0.9,1.9,1.9V34.5z"/>
	<path class="st0" d="M22.7,12.1h2.9c0.3,0,0.6-0.3,0.6-0.6V4.8c0-0.3-0.3-0.6-0.6-0.6h-2.9c-0.3,0-0.6,0.3-0.6,0.6v6.7
		C22.1,11.8,22.4,12.1,22.7,12.1z"/>
</g>
</svg>
