<?xml version="1.0" encoding="utf-8"?>
<!-- Generator: Adobe Illustrator 20.0.0, SVG Export Plug-In . SVG Version: 6.00 Build 0)  -->
<svg version="1.1" id="Calque_1" xmlns="http://www.w3.org/2000/svg" xmlns:xlink="http://www.w3.org/1999/xlink" x="0px" y="0px"
	 width="233px" height="122px" viewBox="0 0 233 122" style="enable-background:new 0 0 233 122;" xml:space="preserve">
<style type="text/css">
	.st0{fill:none;}
	.st1{fill:#566671;}
	.st2{fill:#FFFFFF;}
	.st3{opacity:0.15;fill:url(#SVGID_1_);enable-background:new    ;}
	.st4{fill:#FFFFFF;stroke:#677E89;stroke-width:0.709;stroke-linecap:round;stroke-linejoin:round;stroke-miterlimit:10;}
	.st5{fill:none;stroke:#677E89;stroke-width:0.7087;stroke-linecap:round;stroke-linejoin:round;stroke-miterlimit:10;}
	.st6{fill:#F4F4F4;stroke:#677E89;stroke-width:0.7087;stroke-linecap:round;stroke-linejoin:round;stroke-miterlimit:10;}
	.st7{opacity:0.15;fill:#556671;enable-background:new    ;}
	.st8{fill:#619FC1;}
	.st9{fill:#7AB3D8;}
	.st10{fill:#414F56;}
	.st11{fill:#556671;}
	.st12{fill:#C73B51;}
</style>
<pattern  y="244" width="13.5" height="13.5" patternUnits="userSpaceOnUse" id="SVGID_48_" viewBox="0 -13.5 13.5 13.5" style="overflow:visible;">
	<g>
		<rect y="-13.5" class="st0" width="13.5" height="13.5"/>
		<g>
			<rect y="-13.5" class="st0" width="13.5" height="13.5"/>
			<g>
				<path class="st1" d="M0,0v-1.1c0.6,0,1.1,0.5,1.1,1.1l0,0H0z"/>
				<path class="st1" d="M0-13.5h1.1c0,0.6-0.5,1.1-1.1,1.1l0,0V-13.5z"/>
				<path class="st1" d="M0-3.4v-2.2c0.6,0,1.1,0.5,1.1,1.1C1.1-3.9,0.6-3.4,0-3.4z"/>
				<path class="st1" d="M0-7.9v-2.2c0.6,0,1.1,0.5,1.1,1.1S0.6-7.9,0-7.9z"/>
				<path class="st1" d="M0,0v-1.1c0.6,0,1.1,0.5,1.1,1.1l0,0H0z"/>
				<path class="st1" d="M0-13.5h1.1c0,0.6-0.5,1.1-1.1,1.1l0,0V-13.5z"/>
			</g>
			<g>
				<circle class="st1" cx="4.5" cy="-9" r="1.1"/>
				<circle class="st1" cx="4.5" cy="-4.5" r="1.1"/>
				<path class="st1" d="M5.6,0H3.4c0-0.6,0.5-1.1,1.1-1.1S5.6-0.6,5.6,0z"/>
				<path class="st1" d="M3.4-13.5h2.2c0,0.6-0.5,1.1-1.1,1.1S3.4-12.9,3.4-13.5z"/>
			</g>
			<g>
				<circle class="st1" cx="9" cy="-9" r="1.1"/>
				<circle class="st1" cx="9" cy="-4.5" r="1.1"/>
				<path class="st1" d="M10.1,0H7.9c0-0.6,0.5-1.1,1.1-1.1S10.1-0.6,10.1,0z"/>
				<path class="st1" d="M7.9-13.5h2.2c0,0.6-0.5,1.1-1.1,1.1S7.9-12.9,7.9-13.5z"/>
			</g>
			<g>
				<path class="st1" d="M13.5,0h-1.1c0-0.6,0.5-1.1,1.1-1.1l0,0V0z"/>
				<path class="st1" d="M13.5-13.5v1.1c-0.6,0-1.1-0.5-1.1-1.1l0,0H13.5z"/>
				<path class="st1" d="M13.5-13.5v1.1c-0.6,0-1.1-0.5-1.1-1.1l0,0H13.5z"/>
				<path class="st1" d="M13.5,0h-1.1c0-0.6,0.5-1.1,1.1-1.1l0,0V0z"/>
				<path class="st1" d="M13.5-10.1v2.2c-0.6,0-1.1-0.5-1.1-1.1S12.9-10.1,13.5-10.1z"/>
				<path class="st1" d="M13.5-5.6v2.2c-0.6,0-1.1-0.5-1.1-1.1S12.9-5.6,13.5-5.6z"/>
			</g>
		</g>
	</g>
</pattern>
<rect x="1.3" y="0.3" class="st2" width="230.2" height="113.7"/>
<pattern  id="SVGID_1_" xlink:href="#SVGID_48_" patternTransform="matrix(1 0 0 -1 124.0418 -16841.8281)">
</pattern>
<rect x="1.3" y="0.3" class="st3" width="230.2" height="123.7"/>
<polygon class="st2" points="1.3,0.3 1.3,85.8 5,85.8 5,80.8 10,81.1 10.2,90.6 14,90.3 14.2,72.3 18.7,72.1 19,58.8 23.5,58.8 
	23.5,67.3 28.2,67.1 28,50.1 32.5,50.1 32.5,67.8 41,67.1 41.5,59.3 46,59.1 46,62.8 51,63.3 49.7,68.1 59,67.3 59.2,77.3 
	64.5,77.3 64.2,81.3 69,82.3 69,73.1 73.5,73.1 73.5,76.3 77.5,75.6 78.2,81.8 86.2,82.3 86.2,58.8 91.2,58.8 91.2,72.3 96,72.3 
	95.5,42.1 100,40.3 100.2,63.1 113.2,63.3 114,49.1 117.2,49.3 118.5,53.6 118.5,63.1 127.5,63.1 127,58.6 132.7,58.9 132,67.9 
	136.3,67.9 136,26.6 140.3,27.6 140.7,63.2 145.7,63.2 145.7,54.2 149.7,53.9 150,72.2 154.5,72.2 154.3,59.1 159,59.1 158.8,63.2 
	163.7,63.2 163.3,72.6 168.2,72.6 168,81.1 172.8,81.2 172.5,75.9 176.7,77.2 176.7,72.4 181.3,72.4 181.8,48.9 185.8,48.9 
	185.8,67.7 190.3,67.6 190.5,76.2 195.3,76.4 195.3,71.9 199.3,71.9 199.3,63.1 204.3,63.1 204.7,41.1 217.5,41.1 217.5,58.5 
	222,58.8 222.5,68 226.5,68.2 226,63.8 231.4,63.5 231.4,0.3 "/>
<polyline class="st4" points="230.2,94.4 228.5,93.2 226.3,92.6 223,94.1 223,71.2 213.8,71.2 213.8,64.2 206,64.2 206,92.7 
	203,92.5 203,69.5 196.5,69.5 196.5,89.5 194,89.4 194,62.2 184,62.2 184,84.2 180,85.3 180,88.9 175.8,88.9 175.8,67.7 168,67.7 
	168,80.8 166.7,80.8 166.7,83.7 164.5,83.7 164.5,57 154.3,57 154.3,76.5 145.8,76.5 145.8,72 135.3,72 135.3,92.6 132.5,92.7 
	132.5,85 122.9,85 122.9,82.2 117.5,82.2 117.5,85.3 114.2,86 114.2,89.6 109.8,89.6 109.8,81.5 100.8,81.5 100.8,84.4 98.4,84.4 
	98.4,87.2 96,87.2 96,88.9 93.6,88.9 93.6,88 89.8,86.7 89.8,83.9 86.7,83.9 86.7,90.2 84.7,90.2 84.7,93.1 82.3,93.1 82.3,86.5 
	81.2,86.5 81.2,82.4 78.1,82.4 78.1,86.5 75.7,86.5 75.7,97.4 70,97.4 68.6,92.1 68.6,91.5 66.3,90.7 66.3,89.1 64.4,89.1 
	64.4,92.9 63.2,92.9 63.2,94.6 61.8,94.6 61.8,90.6 58.2,90.6 58.2,88.9 54.9,88.9 54.9,90.8 52.9,91.2 52.9,93.4 50.2,93.4 
	50.2,88.5 44.8,88.5 44.8,90.2 43.3,90.2 43.3,92 41.9,92 41.9,92.9 40.5,92.9 40.5,92.4 38.2,91.6 38.2,89.9 36.3,89.9 36.3,93.8 
	35.1,93.8 35.1,95.5 33.6,95.5 33.6,91.5 33,91.5 33,89 31.1,89 31.1,91.5 29.7,91.5 29.7,98.1 24.5,98.1 22.6,101 22.6,103.1 
	21,103.1 21,101.2 19.5,101.2 19.5,103.1 18.2,103.1 18.2,104.5 16.5,103.1 13.2,101.3 11.1,104.3 10,103.5 3.9,109.1 "/>
<line class="st5" x1="154.3" y1="67" x2="154.3" y2="90.4"/>
<g>
	<rect x="160.4" y="59.4" class="st6" width="1.9" height="1.9"/>
	<rect x="160.4" y="63.4" class="st6" width="1.9" height="1.9"/>
	<rect x="160.4" y="67.4" class="st6" width="1.9" height="1.9"/>
	<rect x="160.4" y="71.4" class="st6" width="1.9" height="1.9"/>
</g>
<rect x="156.4" y="59.4" class="st6" width="1.9" height="1.9"/>
<rect x="156.4" y="63.4" class="st6" width="1.9" height="1.9"/>
<rect x="156.4" y="67.4" class="st6" width="1.9" height="1.9"/>
<rect x="214.1" y="73.9" class="st6" width="1.9" height="1.9"/>
<rect x="218.1" y="73.9" class="st6" width="1.9" height="1.9"/>
<rect x="214.1" y="77.9" class="st6" width="1.9" height="1.9"/>
<rect x="218.1" y="77.9" class="st6" width="1.9" height="1.9"/>
<rect x="218.1" y="81.9" class="st6" width="1.9" height="1.9"/>
<rect x="210" y="65.9" class="st6" width="1.9" height="1.9"/>
<rect x="210" y="69.9" class="st6" width="1.9" height="1.9"/>
<rect x="210" y="73.9" class="st6" width="1.9" height="1.9"/>
<polygon class="st2" points="231.3,124 231.4,95.2 119.6,97.5 4.6,109.6 3,109.4 3,109.6 1.2,109.9 1.7,123.7 "/>
<line class="st5" x1="145.8" y1="72" x2="145.8" y2="104"/>
<path class="st7" d="M151.2,80.1c-0.5-1.3-2-1.9-3.3-1.3l-22.3,9.3c-0.2-0.2-0.4-0.3-0.5-0.5c0,0,0.1,0,0.1-0.1
	c1.3-0.5,7.5-2.9,11.2-8.6c0.4-0.5,0.8-1,1.1-1.6l6.5-2.7c1.3-0.5,1.9-2,1.3-3.3c-0.5-1.3-2-1.9-3.3-1.3l-1,0.4
	c2.5-7.7-0.9-12.1-0.9-12.1v-0.1c-0.6-1-1.4-2-2.3-2.8c-4.1-3.9-9.5-5-14.5-3.5c-9.8,3.2-11,11.3-11,11.3c-0.2,0.8-0.3,1.5-0.5,2.2
	l0,0c0.1-0.5-0.2-1-0.7-1.2l-0.8-0.3c-0.1-0.1-0.3-0.1-0.4-0.1c-0.9-3.9-4.7-4.5-4.7-4.5c-0.3,0-0.7,0.2-0.8,0.5l0,0c0,0,0,0,0,0.1
	c0,0,0,0.1,0,0.2c0,0.4-0.1,1.5,0.3,2.6c0.2,0.7,0.6,1.4,1.2,2c-0.1,0-0.2,0-0.4,0h-0.1c-0.1,0-0.1,0-0.2,0c-2.5,0.2-4,2-4,2
	c-0.1,0.1-0.2,0.3-0.1,0.5c0,0.2,0.1,0.4,0.2,0.5c0,0,2.9,2.4,6.4,0.7c0.1,0.4,0.3,0.7,0.7,0.8l0.8,0.3c0.2,0.1,0.6,0.1,0.6,0.1
	c0,0.3,0.1,1,0.3,2c-0.6,2-1.1,3.2-1.2,3.4c0-0.1-0.1-0.1-0.2-0.2c-3.4-2.3-9.6-2.9-13.5-1.4c-6.7,2.5-13.8,10.9-21.7,7.1
	c-0.4-0.2-0.7,0.1-0.8,0.4l0,0c-2.1,6-6.3,10.7-12,13.5c-0.6,0.3-0.2,1.1,0.4,1c0.1,0.1,0.1,0.1,0.2,0.1c10.4,3.5,17.4-2.1,26.1-7.2
	c3-1.7,6.1-3,9.3-3.8l-0.1,0.1l0,0L76,95.7c-1.2,0.7-1.7,2.2-1,3.4c0.4,0.7,1,1.1,1.7,1.3c0.6,0.1,1.1,0,1.7-0.2L104.9,86
	c0.1,0,0.1,0,0.2,0c0.2,0,0.2,0.2,0.2,0.3s-0.1,0.1-0.1,0.2l0,0l-27.7,16.9c-0.1,0.1-0.3,0.2-0.4,0.3l0,0c-0.1,0.1-0.2,0.2-0.3,0.3
	l0,0c-0.2,0.3-0.3,0.6-0.4,0.9l0,0l0,0c-0.1,0.6-0.1,1.3,0.3,1.9s1,1,1.6,1.1s1.2,0,1.8-0.3l27.7-16.9l0,0c0.1,0,0.2-0.1,0.3,0
	c0.2,0,0.4,0.3,0.3,0.5c0,0.1-0.1,0.2-0.2,0.3l0,0l0,0l-23.5,16.4c-1.1,0.8-1.4,2.3-0.6,3.5c0.4,0.5,0.9,0.9,1.6,1
	c0.6,0.1,1.3,0,1.9-0.4l26.2-18.2l0,0c2.7-2,5.1-2.3,5.1-2.3c1.1,0.9,2.4,1.6,3.7,1.8c1.5,0.3,3.1,0.2,4.7-0.4l22.5-9.4
	C151.1,82.8,151.7,81.4,151.2,80.1z M124.2,88.3L124.2,88.3L124.2,88.3L124.2,88.3z"/>
<g>
	<path class="st8" d="M101.3,27.7c-0.3-0.2-0.3-0.7-0.1-1c0,0,3.4-4,8.2-0.7c0.2,0.1,0.3,0.3,0.3,0.5s-0.1,0.4-0.2,0.6
		C105.4,31,101.4,27.7,101.3,27.7z"/>
	<path class="st9" d="M109.8,26.5c0-0.2-0.1-0.4-0.3-0.5c-4.8-3.3-8.2,0.7-8.2,0.7c-0.2,0.3-0.2,0.7,0.1,1c0,0,0.2,0.2,0.5,0.4
		c2.9-3.2,6.8-2.5,6.8-2.5l-0.1,2.4c0.3-0.2,0.7-0.5,1-0.8C109.7,26.9,109.8,26.7,109.8,26.5z"/>
	<path class="st9" d="M105.2,19.3c-0.4-0.1-0.7,0.2-0.8,0.6c0,0.1-0.8,5.2,4.8,6.7c0.2,0.1,0.4,0,0.6-0.1c0.2-0.1,0.3-0.3,0.3-0.5
		C110.4,20.1,105.2,19.3,105.2,19.3z"/>
	<path class="st10" d="M116.8,44.4c-1.3-0.3-2.6-0.9-3.7-1.8c-1-0.9-1.2-2.5-0.3-3.5s2.5-1.2,3.5-0.3c0.9,0.8,2.1,1,3.2,0.6L142,30
		c1.3-0.5,2.7,0.1,3.3,1.3c0.5,1.3-0.1,2.7-1.3,3.3L121.5,44C119.9,44.6,118.3,44.7,116.8,44.4z"/>
	<path class="st11" d="M140.1,18.3L140.1,18.3c-0.7-1.1-1.5-2-2.4-2.9c-4.1-3.9-9.5-5-14.5-3.5c-9.8,3.2-11,11.3-11,11.3
		c-1.4,7-3.4,11.7-3.4,11.7h-0.6c-1.3,2.1-2.8,3.7-3.7,4.5c-0.2,0.2-0.4,0.3-0.7,0.5c-1.1,0.5-1.4,1.1-1.4,1.6L76,55.6
		c-1.2,0.7-1.7,2.2-1,3.4c0.4,0.7,1,1.1,1.7,1.3c0.6,0.1,1.1,0,1.7-0.2l26.5-14.2c0.1,0,0.1,0,0.2,0c0.2,0,0.2,0.2,0.2,0.3
		s-0.1,0.1-0.1,0.2l0,0L77.5,63.3c-1.2,0.7-1.6,2.3-0.8,3.4c0.4,0.6,1,1,1.6,1.1s1.2,0,1.8-0.3l27.7-16.9l0,0c0.1,0,0.2-0.1,0.3,0
		c0.2,0,0.4,0.3,0.3,0.5c0,0.1-0.1,0.2-0.2,0.3l0,0l0,0L84.7,67.8c-1.1,0.8-1.4,2.3-0.6,3.5c0.4,0.5,0.9,0.9,1.6,1
		c0.6,0.1,1.3,0,1.9-0.4l26.2-18.2l0,0c2.7-2,5.1-2.3,5.1-2.3l0.3-0.8c2.4-0.7,4.7-1.7,6-3c1.3-0.5,7.5-2.9,11.2-8.6
		C146.1,26,140.1,18.3,140.1,18.3z"/>
	<ellipse transform="matrix(0.866 -0.5 0.5 0.866 -3.9454 69.4651)" class="st11" cx="127.6" cy="42.1" rx="1.6" ry="1.6"/>
	<ellipse transform="matrix(0.5316 -0.847 0.847 0.5316 25.1393 126.9748)" class="st2" cx="127.4" cy="40.8" rx="4.1" ry="3.3"/>
	<ellipse transform="matrix(0.866 -0.5 0.5 0.866 -3.9758 69.4175)" class="st11" cx="127.5" cy="42.1" rx="1.5" ry="1.5"/>
	<path class="st9" d="M135.8,39.7c-0.9-0.7-2-1.7-3.1-3.1c0,0-1.9-3-6.2-4l0,0c-12.6-2.2-15.2-8-15.2-8c0,1-0.7,2.8-1.2,4l0,0l0,0
		c-0.1,0.3-0.2,0.5-0.3,0.8l0,0c0,0-0.6,8.3,15.3,16.1c0.9,0.4,1.7,0.8,2.3,1.1C129.6,45.4,133.2,43.3,135.8,39.7z M125.3,44.1
		c-1.5-0.9-1.8-3.3-0.6-5.2s3.4-2.7,4.9-1.7c1.5,0.9,1.8,3.3,0.6,5.2S126.8,45.1,125.3,44.1z"/>
	<path class="st12" d="M125.9,48.2c-1.4-1.3-3-2.4-4.9-3.2c0,0,0,0-0.1-0.1c-5-2.3-8.8-5.3-11.9-9.8c0-0.1-0.1-0.3-0.3-0.4
		c-3.4-2.3-9.6-2.9-13.5-1.4c-6.7,2.5-13.8,10.9-21.7,7.1c-0.4-0.2-0.7,0.1-0.8,0.4l0,0c-2.1,6-6.3,10.7-12,13.5
		c-0.6,0.3-0.2,1.1,0.4,1c0.1,0.1,0.1,0.1,0.2,0.1c10.4,3.5,17.4-2.1,26.1-7.2c5.7-3.3,11.8-4.9,18.5-4.8c6.1,0.2,14.5,1.1,19,5.5
		C125.6,49.6,126.4,48.7,125.9,48.2z"/>
	<path class="st11" d="M122.7,53.1c-1.3-0.3-2.6-0.9-3.7-1.8c-1-0.9-1.2-2.5-0.3-3.5s2.5-1.2,3.5-0.3c0.9,0.8,2.1,1,3.2,0.6
		l22.5-9.4c1.3-0.5,2.7,0.1,3.3,1.3c0.5,1.3-0.1,2.7-1.3,3.3l-22.5,9.4C125.8,53.3,124.2,53.4,122.7,53.1z"/>
	<path class="st10" d="M105.3,46.3L77.6,63.2c-0.6,0.4-1,0.9-1.1,1.6c5-1,9.8-3.5,14.5-6.1c8.8-4.8,21.6-12.8,32.2-10.7
		c0,0,0.6,0.1,0.8,0.2c0.1,0,0.2,0,0.2,0.1c-4.7-3.7-12.4-4.6-18.1-4.7c-3.1-0.1-6.1,0.3-9,1L97,44.7l-0.1,0.1L76.3,55.9
		c-1.2,0.7-1.7,2.2-1,3.4c0.4,0.7,1,1.1,1.7,1.3c0.6,0.1,1.1,0,1.7-0.2L105.3,46.3c0-0.1,0-0.1,0.1-0.1c0.2,0,0.2,0.2,0.2,0.3
		C105.4,46.2,105.3,46.3,105.3,46.3L105.3,46.3z"/>
	<path class="st8" d="M104.4,19.8L104.4,19.8c0,0.1-0.8,5.3,4.8,6.8c0.2,0.1,0.4,0,0.6-0.1c0.2-0.1,0.3-0.3,0.3-0.5
		c0-0.8,0-1.5-0.2-2.1C109.3,23.7,105.6,22.7,104.4,19.8z"/>
	<path class="st9" d="M109.2,29.4l-0.8-0.3c-0.6-0.2-0.9-0.9-0.7-1.4l1.2-3.2c0.2-0.6,0.9-0.9,1.4-0.7l0.8,0.3
		c0.6,0.2,0.9,0.9,0.7,1.4l-1.2,3.2C110.4,29.4,109.7,29.7,109.2,29.4z"/>
	<path class="st8" d="M111.8,25.4c0,0-1.3,1.7-2,4.1c0,0-0.4,0.1-0.6-0.1C109.2,29.4,110.1,26.6,111.8,25.4z"/>
</g>
</svg>
